# Created by Kenney (www.kenney.nl)

mtllib present-b-cube.mtl

g present-b-cube

v -0.05 0 0.2 1 1 1
v -0.05 0.2 0.2 1 1 1
v 0.05 4.849107E-17 0.2 1 1 1
v 0.05 0.2 0.2 1 1 1
v -0.05 0 -0.2 1 1 1
v 0.05 4.849107E-17 -0.2 1 1 1
v -0.05 0.2 -0.2 1 1 1
v 0.05 0.2 -0.2 1 1 1
v -0.2 0 -0.05 1 1 1
v -0.2 0.2 -0.05 1 1 1
v -0.2 0 0.05 1 1 1
v -0.2 0.2 0.05 1 1 1
v 0.2 0.2 -0.05 1 1 1
v 0.2 0 -0.05 1 1 1
v 0.2 0.2 0.05 1 1 1
v 0.2 0 0.05 1 1 1
v 0.2 0.2 0.15 1 1 1
v 0.2 0 0.15 1 1 1
v -0.15 0 0.2 1 1 1
v -0.15 0.2 0.2 1 1 1
v -0.15 0 -0.2 1 1 1
v -0.15 0.2 -0.2 1 1 1
v -0.2 0 -0.15 1 1 1
v -0.2 0.2 -0.15 1 1 1
v -0.2 0 0.15 1 1 1
v -0.2 0.2 0.15 1 1 1
v 0.15 0.2 -0.2 1 1 1
v 0.15 0 -0.2 1 1 1
v 0.2 0.2 -0.15 1 1 1
v 0.2 0 -0.15 1 1 1
v 0.15 0.2 0.2 1 1 1
v 0.15 0 0.2 1 1 1
v 0.15 0.2 -0.1292893 1 1 1
v 0.1292893 0.2 -0.15 1 1 1
v 0.15 0.2 0.1292893 1 1 1
v 0.1292893 0.2 0.15 1 1 1
v -0.1292893 0.2 -0.15 1 1 1
v -0.15 0.2 -0.1292893 1 1 1
v -0.1292893 0.2 0.15 1 1 1
v -0.15 0.2 0.1292893 1 1 1
v 0.15 0.1 -0.1292893 1 1 1
v 0.15 0.1 0.1292893 1 1 1
v 0.1292893 0.1 -0.15 1 1 1
v 0.1292893 0.1 0.15 1 1 1
v -0.1292893 0.1 -0.15 1 1 1
v -0.1292893 0.1 0.15 1 1 1
v -0.15 0.1 -0.1292893 1 1 1
v -0.15 0.1 0.1292893 1 1 1

vn 0 0 1
vn 0 0 -1
vn -1 0 0
vn 1 0 0
vn 0.9238795 0 0.3826834
vn -0.3826834 0 0.9238795
vn -0.3826834 0 -0.9238795
vn -0.9238795 0 -0.3826834
vn -0.9238795 0 0.3826834
vn 0.3826834 0 -0.9238795
vn 0.9238795 0 -0.3826834
vn 0.3826834 0 0.9238795
vn 0 1 0
vn 0 -1 0

vt 0.46875 0.275
vt 0.46875 0.475
vt 0.21875 0.025
vt 0.21875 0.225
vt 0.21875 0.125

usemtl colormap

f 3/1/1 2/2/1 1/1/1
f 2/2/1 3/1/1 4/2/1
f 7/2/2 6/1/2 5/1/2
f 6/1/2 7/2/2 8/2/2
f 11/1/3 10/2/3 9/1/3
f 10/2/3 11/1/3 12/2/3
f 15/2/4 14/1/4 13/2/4
f 14/1/4 15/2/4 16/1/4
f 17/3/5 16/4/4 15/3/4
f 16/4/4 17/3/5 18/4/5
f 2/3/1 19/4/6 1/4/1
f 19/4/6 2/3/1 20/3/6
f 23/4/8 22/3/7 21/4/7
f 22/3/7 23/4/8 24/3/8
f 19/4/6 26/3/9 25/4/9
f 26/3/9 19/4/6 20/3/6
f 29/3/11 28/4/10 27/3/10
f 28/4/10 29/3/11 30/4/11
f 31/3/12 18/4/5 17/3/5
f 18/4/5 31/3/12 32/4/12
f 27/3/13 13/3/13 29/3/13
f 13/3/13 27/3/13 15/3/13
f 31/3/13 15/3/13 27/3/13
f 15/3/13 31/3/13 17/3/13
f 31/3/13 27/3/13 33/3/13
f 27/3/13 34/3/13 33/3/13
f 31/3/13 33/3/13 35/3/13
f 34/3/13 27/3/13 8/3/13
f 31/3/13 35/3/13 36/3/13
f 31/3/13 36/3/13 4/3/13
f 34/3/13 8/3/13 37/3/13
f 37/3/13 8/3/13 7/3/13
f 37/3/13 7/3/13 22/3/13
f 37/3/13 22/3/13 38/3/13
f 4/3/13 36/3/13 39/3/13
f 4/3/13 39/3/13 2/3/13
f 38/3/13 22/3/13 24/3/13
f 2/3/13 39/3/13 20/3/13
f 20/3/13 39/3/13 40/3/13
f 38/3/13 24/3/13 40/3/13
f 40/3/13 24/3/13 20/3/13
f 20/3/13 24/3/13 26/3/13
f 26/3/13 24/3/13 10/3/13
f 26/3/13 10/3/13 12/3/13
f 32/4/14 16/4/14 18/4/14
f 16/4/14 32/4/14 14/4/14
f 14/4/14 32/4/14 30/4/14
f 30/4/14 32/4/14 28/4/14
f 28/4/14 32/4/14 3/4/14
f 28/4/14 3/4/14 6/4/14
f 6/4/14 3/4/14 1/4/14
f 6/4/14 1/4/14 5/4/14
f 5/4/14 1/4/14 19/4/14
f 5/4/14 19/4/14 21/4/14
f 21/4/14 19/4/14 25/4/14
f 21/4/14 25/4/14 11/4/14
f 9/4/14 21/4/14 11/4/14
f 21/4/14 9/4/14 23/4/14
f 43/5/13 42/5/13 41/5/13
f 42/5/13 43/5/13 44/5/13
f 44/5/13 43/5/13 45/5/13
f 44/5/13 45/5/13 46/5/13
f 46/5/13 45/5/13 47/5/13
f 46/5/13 47/5/13 48/5/13
f 33/3/9 43/5/6 41/5/9
f 43/5/6 33/3/9 34/3/6
f 34/3/6 45/5/12 43/5/6
f 45/5/12 34/3/6 37/3/12
f 38/3/5 45/5/12 37/3/12
f 45/5/12 38/3/5 47/5/5
f 40/3/11 47/5/5 38/3/5
f 47/5/5 40/3/11 48/5/11
f 39/3/10 48/5/11 40/3/11
f 48/5/11 39/3/10 46/5/10
f 39/3/10 44/5/7 46/5/10
f 44/5/7 39/3/10 36/3/7
f 36/3/7 42/5/8 44/5/7
f 42/5/8 36/3/7 35/3/8
f 42/5/8 33/3/9 41/5/9
f 33/3/9 42/5/8 35/3/8
f 13/3/4 30/4/11 29/3/11
f 30/4/11 13/3/4 14/4/4
f 9/4/3 24/3/8 23/4/8
f 24/3/8 9/4/3 10/3/3
f 31/3/12 3/4/1 32/4/12
f 3/4/1 31/3/12 4/3/1
f 22/3/7 5/4/2 21/4/7
f 5/4/2 22/3/7 7/3/2
f 6/4/2 27/3/10 28/4/10
f 27/3/10 6/4/2 8/3/2
f 25/4/9 12/3/3 11/4/3
f 12/3/3 25/4/9 26/3/9

g present-b-cube




usemtl colormap

f 3/1/1 2/2/1 1/1/1
f 2/2/1 3/1/1 4/2/1
f 7/2/2 6/1/2 5/1/2
f 6/1/2 7/2/2 8/2/2
f 11/1/3 10/2/3 9/1/3
f 10/2/3 11/1/3 12/2/3
f 15/2/4 14/1/4 13/2/4
f 14/1/4 15/2/4 16/1/4
f 17/3/5 16/4/4 15/3/4
f 16/4/4 17/3/5 18/4/5
f 2/3/1 19/4/6 1/4/1
f 19/4/6 2/3/1 20/3/6
f 23/4/8 22/3/7 21/4/7
f 22/3/7 23/4/8 24/3/8
f 19/4/6 26/3/9 25/4/9
f 26/3/9 19/4/6 20/3/6
f 29/3/11 28/4/10 27/3/10
f 28/4/10 29/3/11 30/4/11
f 31/3/12 18/4/5 17/3/5
f 18/4/5 31/3/12 32/4/12
f 27/3/13 13/3/13 29/3/13
f 13/3/13 27/3/13 15/3/13
f 31/3/13 15/3/13 27/3/13
f 15/3/13 31/3/13 17/3/13
f 31/3/13 27/3/13 33/3/13
f 27/3/13 34/3/13 33/3/13
f 31/3/13 33/3/13 35/3/13
f 34/3/13 27/3/13 8/3/13
f 31/3/13 35/3/13 36/3/13
f 31/3/13 36/3/13 4/3/13
f 34/3/13 8/3/13 37/3/13
f 37/3/13 8/3/13 7/3/13
f 37/3/13 7/3/13 22/3/13
f 37/3/13 22/3/13 38/3/13
f 4/3/13 36/3/13 39/3/13
f 4/3/13 39/3/13 2/3/13
f 38/3/13 22/3/13 24/3/13
f 2/3/13 39/3/13 20/3/13
f 20/3/13 39/3/13 40/3/13
f 38/3/13 24/3/13 40/3/13
f 40/3/13 24/3/13 20/3/13
f 20/3/13 24/3/13 26/3/13
f 26/3/13 24/3/13 10/3/13
f 26/3/13 10/3/13 12/3/13
f 32/4/14 16/4/14 18/4/14
f 16/4/14 32/4/14 14/4/14
f 14/4/14 32/4/14 30/4/14
f 30/4/14 32/4/14 28/4/14
f 28/4/14 32/4/14 3/4/14
f 28/4/14 3/4/14 6/4/14
f 6/4/14 3/4/14 1/4/14
f 6/4/14 1/4/14 5/4/14
f 5/4/14 1/4/14 19/4/14
f 5/4/14 19/4/14 21/4/14
f 21/4/14 19/4/14 25/4/14
f 21/4/14 25/4/14 11/4/14
f 9/4/14 21/4/14 11/4/14
f 21/4/14 9/4/14 23/4/14
f 43/5/13 42/5/13 41/5/13
f 42/5/13 43/5/13 44/5/13
f 44/5/13 43/5/13 45/5/13
f 44/5/13 45/5/13 46/5/13
f 46/5/13 45/5/13 47/5/13
f 46/5/13 47/5/13 48/5/13
f 33/3/9 43/5/6 41/5/9
f 43/5/6 33/3/9 34/3/6
f 34/3/6 45/5/12 43/5/6
f 45/5/12 34/3/6 37/3/12
f 38/3/5 45/5/12 37/3/12
f 45/5/12 38/3/5 47/5/5
f 40/3/11 47/5/5 38/3/5
f 47/5/5 40/3/11 48/5/11
f 39/3/10 48/5/11 40/3/11
f 48/5/11 39/3/10 46/5/10
f 39/3/10 44/5/7 46/5/10
f 44/5/7 39/3/10 36/3/7
f 36/3/7 42/5/8 44/5/7
f 42/5/8 36/3/7 35/3/8
f 42/5/8 33/3/9 41/5/9
f 33/3/9 42/5/8 35/3/8
f 13/3/4 30/4/11 29/3/11
f 30/4/11 13/3/4 14/4/4
f 9/4/3 24/3/8 23/4/8
f 24/3/8 9/4/3 10/3/3
f 31/3/12 3/4/1 32/4/12
f 3/4/1 31/3/12 4/3/1
f 22/3/7 5/4/2 21/4/7
f 5/4/2 22/3/7 7/3/2
f 6/4/2 27/3/10 28/4/10
f 27/3/10 6/4/2 8/3/2
f 25/4/9 12/3/3 11/4/3
f 12/3/3 25/4/9 26/3/9

g lid

v 0.225 0.2 0.05 1 1 1
v 0.225 0.2 -0.05 1 1 1
v 0.225 0.2 0.1603553 1 1 1
v 0.1603553 0.2 0.225 1 1 1
v 0.1603553 0.2 -0.225 1 1 1
v 0.225 0.2 -0.1603553 1 1 1
v 0.05 0.2 0.225 1 1 1
v 0.05 0.2 -0.225 1 1 1
v -0.05 0.2 -0.225 1 1 1
v -0.05 0.2 0.225 1 1 1
v -0.1603553 0.2 -0.225 1 1 1
v -0.1603553 0.2 0.225 1 1 1
v -0.225 0.2 0.1603553 1 1 1
v -0.225 0.2 0.05 1 1 1
v -0.225 0.2 -0.1603553 1 1 1
v -0.225 0.2 -0.05 1 1 1
v 0.225 0.3 -0.1603553 1 1 1
v 0.225 0.3 -0.05 1 1 1
v 0.1603553 0.3 -0.225 1 1 1
v 0.05 0.3 -0.05 1 1 1
v 0.05 0.3 -0.225 1 1 1
v -0.225 0.3 0.1603553 1 1 1
v -0.1603553 0.3 0.225 1 1 1
v 0.1603553 0.3 0.225 1 1 1
v 0.05 0.3 0.225 1 1 1
v 0.225 0.3 0.1603553 1 1 1
v -0.1603553 0.3 -0.225 1 1 1
v -0.225 0.3 -0.1603553 1 1 1
v -0.225 0.3 -0.05 1 1 1
v -0.05 0.3 0.225 1 1 1
v 0.225 0.3 0.05 1 1 1
v -0.225 0.3 0.05 1 1 1
v -0.05 0.3 -0.225 1 1 1
v -0.05 0.3 -0.05 1 1 1
v 0.05 0.3 0.05 1 1 1
v -0.05 0.3 0.05 1 1 1
v 0 0.4 -0.05 1 1 1
v 0 0.4 0.05 1 1 1
v -0.07071068 0.4707107 -0.05 1 1 1
v -0.07071068 0.4707107 0.05 1 1 1
v 0.07071068 0.4707107 -0.05 1 1 1
v 0.07071068 0.4707107 0.05 1 1 1
v 0.1414214 0.4414214 -0.05 1 1 1
v 0.1414214 0.4414214 0.05 1 1 1
v 0.1707107 0.3707107 -0.05 1 1 1
v 0.1707107 0.3707107 0.05 1 1 1
v 0.1414214 0.3 -0.05 1 1 1
v 0.1414214 0.3 0.05 1 1 1
v -0.1707107 0.3707107 -0.05 1 1 1
v -0.1707107 0.3707107 0.05 1 1 1
v -0.1414214 0.3 -0.05 1 1 1
v -0.1414214 0.3 0.05 1 1 1
v -0.1414214 0.4414214 -0.05 1 1 1
v -0.1414214 0.4414214 0.05 1 1 1
v 0.08244234 0.4117317 0.05 1 1 1
v 0.103153 0.403153 0.05 1 1 1
v 0.1165911 0.3707107 0.05 1 1 1
v 0.1080124 0.35 0.05 1 1 1
v -0.1080124 0.35 0.05 1 1 1
v 0.02071068 0.35 0.05 1 1 1
v -0.1165911 0.3707107 0.05 1 1 1
v -0.02071068 0.35 0.05 1 1 1
v -0.103153 0.403153 0.05 1 1 1
v -0.08244234 0.4117317 0.05 1 1 1
v 0.103153 0.403153 -0.05 1 1 1
v 0.1165911 0.3707107 -0.05 1 1 1
v 0.08244234 0.4117317 -0.05 1 1 1
v 0.1080124 0.35 -0.05 1 1 1
v 0.02071068 0.35 -0.05 1 1 1
v -0.02071068 0.35 -0.05 1 1 1
v -0.08244234 0.4117317 -0.05 1 1 1
v -0.103153 0.403153 -0.05 1 1 1
v -0.1080124 0.35 -0.05 1 1 1
v -0.1165911 0.3707107 -0.05 1 1 1

vn 0.7071068 0.7071068 0
vn 0.1950903 0.9807853 0
vn -0.1950903 0.9807853 0
vn -0.7071068 0.7071068 0
vn 0.9238795 -0.3826834 0
vn -0.9238795 -0.3826834 0
vn -0.1950903 -0.9807853 0
vn 0.7071068 -0.7071068 0
vn 0.1950903 -0.9807853 0
vn -0.5555702 0.8314696 0
vn -0.7071068 -0.7071068 0
vn 0.5555702 0.8314696 0

vt 0.21875 0.075
vt 0.21875 0.175
vt 0.46875 0.4335786
vt 0.46875 0.4578427
vt 0.46875 0.4164214
vt 0.46875 0.375
vt 0.46875 0.4404509
vt 0.46875 0.4354256
vt 0.46875 0.4042893
vt 0.46875 0.3611033
vt 0.46875 0.3085495

usemtl colormap

f 51/6/14 50/6/14 49/6/14
f 50/6/14 51/6/14 52/6/14
f 53/6/14 50/6/14 52/6/14
f 50/6/14 53/6/14 54/6/14
f 53/6/14 52/6/14 55/6/14
f 53/6/14 55/6/14 56/6/14
f 56/6/14 55/6/14 57/6/14
f 57/6/14 55/6/14 58/6/14
f 57/6/14 58/6/14 59/6/14
f 59/6/14 58/6/14 60/6/14
f 59/6/14 60/6/14 61/6/14
f 59/6/14 61/6/14 62/6/14
f 62/6/14 63/6/14 59/6/14
f 63/6/14 62/6/14 64/6/14
f 67/7/13 66/7/13 65/7/13
f 66/7/13 67/7/13 68/7/13
f 68/7/13 67/7/13 69/7/13
f 60/6/6 70/7/9 61/6/9
f 70/7/9 60/6/6 71/7/6
f 72/7/12 55/6/1 52/6/12
f 55/6/1 72/7/12 73/7/1
f 72/7/12 51/6/5 74/7/5
f 51/6/5 72/7/12 52/6/12
f 65/7/11 53/6/10 67/7/10
f 53/6/10 65/7/11 54/6/11
f 63/6/8 75/7/7 59/6/7
f 75/7/7 63/6/8 76/7/8
f 64/6/3 76/7/8 63/6/8
f 76/7/8 64/6/3 77/7/3
f 58/6/1 71/7/6 60/6/6
f 71/7/6 58/6/1 78/7/1
f 66/7/4 54/6/11 65/7/11
f 54/6/11 66/7/4 50/6/4
f 74/7/5 49/6/4 79/7/4
f 49/6/4 74/7/5 51/6/5
f 61/6/9 80/7/3 62/6/3
f 80/7/3 61/6/9 70/7/9
f 69/7/2 53/6/10 56/6/2
f 53/6/10 69/7/2 67/7/10
f 75/7/7 57/6/2 59/6/7
f 57/6/2 75/7/7 81/7/2
f 75/7/13 82/7/13 81/7/13
f 82/7/13 75/7/13 77/7/13
f 77/7/13 75/7/13 76/7/13
f 83/7/13 74/7/13 79/7/13
f 74/7/13 83/7/13 72/7/13
f 72/7/13 83/7/13 73/7/13
f 80/7/13 78/7/13 84/7/13
f 78/7/13 80/7/13 71/7/13
f 71/7/13 80/7/13 70/7/13
f 79/2/4 50/1/4 66/2/4
f 50/1/4 79/2/4 49/1/4
f 84/2/13 77/2/13 80/2/13
f 77/2/13 84/2/13 82/2/13
f 78/2/13 82/2/13 84/2/13
f 78/2/13 81/2/13 82/2/13
f 73/2/13 81/2/13 78/2/13
f 83/2/13 81/2/13 73/2/13
f 68/2/13 81/2/13 83/2/13
f 81/2/13 68/2/13 69/2/13
f 83/2/13 66/2/13 68/2/13
f 66/2/13 83/2/13 79/2/13
f 62/1/3 77/2/3 64/1/3
f 77/2/3 62/1/3 80/2/3
f 81/2/2 56/1/2 57/1/2
f 56/1/2 81/2/2 69/2/2
f 73/2/1 58/1/1 55/1/1
f 58/1/1 73/2/1 78/2/1
f 87/2/16 86/8/15 85/8/15
f 86/8/15 87/2/16 88/2/16
f 85/8/18 90/2/17 89/2/17
f 90/2/17 85/8/18 86/8/18
f 89/2/17 92/9/15 91/9/15
f 92/9/15 89/2/17 90/2/17
f 91/9/15 94/10/4 93/10/4
f 94/10/4 91/9/15 92/9/15
f 94/10/4 95/11/19 93/10/4
f 95/11/19 94/10/4 96/11/19
f 99/11/20 98/10/3 97/10/3
f 98/10/3 99/11/20 100/11/20
f 98/10/3 101/9/18 97/10/3
f 101/9/18 98/10/3 102/9/18
f 101/9/18 88/2/16 87/2/16
f 88/2/16 101/9/18 102/9/18
f 86/8/1 103/12/1 90/2/1
f 90/2/1 103/12/1 92/9/1
f 104/13/1 92/9/1 103/12/1
f 105/10/1 92/9/1 104/13/1
f 105/10/1 94/10/1 92/9/1
f 106/14/1 94/10/1 105/10/1
f 106/14/1 96/11/1 94/10/1
f 96/11/1 106/14/1 100/11/1
f 107/14/1 100/11/1 106/14/1
f 107/14/1 106/14/1 108/14/1
f 100/11/1 107/14/1 98/10/1
f 98/10/1 107/14/1 109/10/1
f 107/14/1 108/14/1 110/14/1
f 103/12/1 110/14/1 108/14/1
f 110/14/1 103/12/1 86/8/1
f 98/10/1 109/10/1 102/9/1
f 102/9/1 109/10/1 111/13/1
f 86/8/1 112/12/1 110/14/1
f 102/9/1 111/13/1 112/12/1
f 112/12/1 86/8/1 88/2/1
f 112/12/1 88/2/1 102/9/1
f 91/9/2 114/10/2 113/13/2
f 91/9/2 113/13/2 115/12/2
f 93/10/2 114/10/2 91/9/2
f 115/12/2 89/2/2 91/9/2
f 93/10/2 116/14/2 114/10/2
f 115/12/2 85/8/2 89/2/2
f 95/11/2 116/14/2 93/10/2
f 85/8/2 115/12/2 117/14/2
f 116/14/2 95/11/2 118/14/2
f 116/14/2 118/14/2 117/14/2
f 117/14/2 119/12/2 85/8/2
f 119/12/2 117/14/2 118/14/2
f 85/8/2 119/12/2 87/2/2
f 87/2/2 119/12/2 101/9/2
f 120/13/2 101/9/2 119/12/2
f 118/14/2 95/11/2 121/14/2
f 99/11/2 121/14/2 95/11/2
f 120/13/2 97/10/2 101/9/2
f 121/14/2 99/11/2 97/10/2
f 122/10/2 97/10/2 120/13/2
f 121/14/2 97/10/2 122/10/2
f 112/11/21 120/15/22 119/11/21
f 120/15/22 112/11/21 111/15/22
f 111/15/22 122/16/4 120/15/22
f 122/16/4 111/15/22 109/16/4
f 115/11/23 108/1/22 117/1/22
f 108/1/22 115/11/23 103/11/23
f 116/1/24 108/1/13 106/1/24
f 108/1/13 116/1/24 117/1/13
f 105/16/3 113/15/25 114/16/3
f 113/15/25 105/16/3 104/15/25
f 103/11/23 113/15/25 104/15/25
f 113/15/25 103/11/23 115/11/23
f 109/16/4 121/1/26 122/16/4
f 121/1/26 109/16/4 107/1/26
f 121/1/26 110/1/13 118/1/13
f 110/1/13 121/1/26 107/1/26
f 118/1/25 112/11/21 119/11/21
f 112/11/21 118/1/25 110/1/25
f 116/1/24 105/16/3 114/16/3
f 105/16/3 116/1/24 106/1/24

