# Created by Kenney (www.kenney.nl)

mtllib present-a-round.mtl

g present-a-round

v -0.05 0 -0.2494475 1 1 1
v 0.05 4.849107E-17 -0.2494475 1 1 1
v -0.05 0.3 -0.2494475 1 1 1
v 0.05 0.3 -0.2494475 1 1 1
v -0.2494475 4.849107E-17 -0.05 1 1 1
v -0.2494475 0.3 -0.05 1 1 1
v -0.2494475 0 0.05 1 1 1
v -0.2494475 0.3 0.05 1 1 1
v 0.2494475 0.3 -0.05 1 1 1
v 0.2494475 7.10508E-17 -0.05 1 1 1
v 0.2494475 0.3 0.05 1 1 1
v 0.2494475 2.255973E-17 0.05 1 1 1
v -0.05 2.087393E-17 0.2494475 1 1 1
v -0.05 0.3 0.2494475 1 1 1
v 0.05 6.9365E-17 0.2494475 1 1 1
v 0.05 0.3 0.2494475 1 1 1
v 0.1033245 0.3 0.2494475 1 1 1
v 0.1033245 4.511946E-17 0.2494475 1 1 1
v 0.2494475 4.511946E-17 0.1033245 1 1 1
v 0.2494475 0.3 0.1033245 1 1 1
v 0.1033245 0.3 -0.2494475 1 1 1
v 0.1033245 4.511946E-17 -0.2494475 1 1 1
v 0.2494475 4.511946E-17 -0.1033245 1 1 1
v 0.2494475 0.3 -0.1033245 1 1 1
v -0.2494475 4.511946E-17 0.1033245 1 1 1
v -0.2494475 0.3 0.1033245 1 1 1
v -0.1033245 0.3 0.2494475 1 1 1
v -0.1033245 4.511946E-17 0.2494475 1 1 1
v -0.1033245 4.511946E-17 -0.2494475 1 1 1
v -0.1033245 0.3 -0.2494475 1 1 1
v -0.2494475 4.511946E-17 -0.1033245 1 1 1
v -0.2494475 0.3 -0.1033245 1 1 1
v 0.1994475 0.1 0.08261385 1 1 1
v 0.08261385 0.1 0.1994475 1 1 1
v 0.1994475 0.1 -0.08261385 1 1 1
v 0.08261385 0.1 -0.1994475 1 1 1
v -0.08261385 0.1 0.1994475 1 1 1
v -0.08261385 0.1 -0.1994475 1 1 1
v -0.1994475 0.1 0.08261385 1 1 1
v -0.1994475 0.1 -0.08261385 1 1 1
v -0.1994475 0.3 -0.08261385 1 1 1
v -0.1994475 0.3 0.08261385 1 1 1
v -0.08261385 0.3 -0.1994475 1 1 1
v 0.08261385 0.3 -0.1994475 1 1 1
v 0.1994475 0.3 -0.08261385 1 1 1
v -0.08261385 0.3 0.1994475 1 1 1
v 0.08261385 0.3 0.1994475 1 1 1
v 0.1994475 0.3 0.08261385 1 1 1

vn 0 0 -1
vn -1 0 0
vn 1 0 0
vn 0 0 1
vn 0.3826834 0 0.9238795
vn 0.9238795 0 0.3826834
vn 0.3826834 0 -0.9238795
vn 0.9238795 0 -0.3826834
vn -0.9238795 0 0.3826834
vn -0.3826834 0 0.9238795
vn -0.3826834 0 -0.9238795
vn -0.9238795 0 -0.3826834
vn 0 1 0
vn 0 -1 0

vt 0.46875 0.025
vt 0.46875 0.225
vt 0.09375 0.275
vt 0.09375 0.475
vt 0.09375 0.4083333

usemtl colormap

f 3/2/1 2/1/1 1/1/1
f 2/1/1 3/2/1 4/2/1
f 7/1/2 6/2/2 5/1/2
f 6/2/2 7/1/2 8/2/2
f 11/2/3 10/1/3 9/2/3
f 10/1/3 11/2/3 12/1/3
f 15/1/4 14/2/4 13/1/4
f 14/2/4 15/1/4 16/2/4
f 15/4/4 17/3/5 16/3/4
f 17/3/5 15/4/4 18/4/5
f 19/4/6 17/3/5 18/4/5
f 17/3/5 19/4/6 20/3/6
f 12/4/3 20/3/6 19/4/6
f 20/3/6 12/4/3 11/3/3
f 21/3/7 2/4/1 4/3/1
f 2/4/1 21/3/7 22/4/7
f 21/3/7 23/4/8 22/4/7
f 23/4/8 21/3/7 24/3/8
f 9/3/3 23/4/8 24/3/8
f 23/4/8 9/3/3 10/4/3
f 25/4/9 8/3/2 7/4/2
f 8/3/2 25/4/9 26/3/9
f 25/4/9 27/3/10 26/3/9
f 27/3/10 25/4/9 28/4/10
f 28/4/10 14/3/4 27/3/10
f 14/3/4 28/4/10 13/4/4
f 29/4/11 3/3/1 1/4/1
f 3/3/1 29/4/11 30/3/11
f 31/4/12 30/3/11 29/4/11
f 30/3/11 31/4/12 32/3/12
f 5/4/2 32/3/12 31/4/12
f 32/3/12 5/4/2 6/3/2
f 35/5/13 34/5/13 33/5/13
f 34/5/13 35/5/13 36/5/13
f 34/5/13 36/5/13 37/5/13
f 37/5/13 36/5/13 38/5/13
f 37/5/13 38/5/13 39/5/13
f 39/5/13 38/5/13 40/5/13
f 18/4/14 12/4/14 19/4/14
f 12/4/14 18/4/14 10/4/14
f 10/4/14 18/4/14 23/4/14
f 23/4/14 18/4/14 22/4/14
f 22/4/14 18/4/14 15/4/14
f 22/4/14 15/4/14 2/4/14
f 2/4/14 15/4/14 13/4/14
f 2/4/14 13/4/14 1/4/14
f 1/4/14 13/4/14 28/4/14
f 1/4/14 28/4/14 29/4/14
f 29/4/14 28/4/14 25/4/14
f 29/4/14 25/4/14 31/4/14
f 31/4/14 25/4/14 5/4/14
f 5/4/14 25/4/14 7/4/14
f 26/3/13 6/3/13 8/3/13
f 26/3/13 32/3/13 6/3/13
f 41/3/13 32/3/13 26/3/13
f 41/3/13 30/3/13 32/3/13
f 26/3/13 42/3/13 41/3/13
f 27/3/13 42/3/13 26/3/13
f 43/3/13 30/3/13 41/3/13
f 43/3/13 3/3/13 30/3/13
f 43/3/13 4/3/13 3/3/13
f 44/3/13 4/3/13 43/3/13
f 44/3/13 21/3/13 4/3/13
f 45/3/13 21/3/13 44/3/13
f 45/3/13 24/3/13 21/3/13
f 27/3/13 46/3/13 42/3/13
f 14/3/13 46/3/13 27/3/13
f 16/3/13 46/3/13 14/3/13
f 16/3/13 47/3/13 46/3/13
f 24/3/13 45/3/13 48/3/13
f 17/3/13 47/3/13 16/3/13
f 17/3/13 48/3/13 47/3/13
f 48/3/13 9/3/13 24/3/13
f 48/3/13 11/3/13 9/3/13
f 17/3/13 11/3/13 48/3/13
f 11/3/13 17/3/13 20/3/13
f 38/5/5 44/3/10 43/3/5
f 41/3/6 38/5/5 43/3/5
f 44/3/10 38/5/5 36/5/10
f 38/5/5 41/3/6 40/5/6
f 36/5/10 45/3/9 44/3/10
f 45/3/9 36/5/10 35/5/9
f 33/5/12 45/3/9 35/5/9
f 45/3/9 33/5/12 48/3/12
f 42/3/8 40/5/6 41/3/6
f 40/5/6 42/3/8 39/5/8
f 42/3/8 37/5/7 39/5/8
f 37/5/7 42/3/8 46/3/7
f 34/5/11 48/3/12 33/5/12
f 46/3/7 34/5/11 37/5/7
f 48/3/12 34/5/11 47/3/11
f 34/5/11 46/3/7 47/3/11

g present-a-round




usemtl colormap

f 3/2/1 2/1/1 1/1/1
f 2/1/1 3/2/1 4/2/1
f 7/1/2 6/2/2 5/1/2
f 6/2/2 7/1/2 8/2/2
f 11/2/3 10/1/3 9/2/3
f 10/1/3 11/2/3 12/1/3
f 15/1/4 14/2/4 13/1/4
f 14/2/4 15/1/4 16/2/4
f 15/4/4 17/3/5 16/3/4
f 17/3/5 15/4/4 18/4/5
f 19/4/6 17/3/5 18/4/5
f 17/3/5 19/4/6 20/3/6
f 12/4/3 20/3/6 19/4/6
f 20/3/6 12/4/3 11/3/3
f 21/3/7 2/4/1 4/3/1
f 2/4/1 21/3/7 22/4/7
f 21/3/7 23/4/8 22/4/7
f 23/4/8 21/3/7 24/3/8
f 9/3/3 23/4/8 24/3/8
f 23/4/8 9/3/3 10/4/3
f 25/4/9 8/3/2 7/4/2
f 8/3/2 25/4/9 26/3/9
f 25/4/9 27/3/10 26/3/9
f 27/3/10 25/4/9 28/4/10
f 28/4/10 14/3/4 27/3/10
f 14/3/4 28/4/10 13/4/4
f 29/4/11 3/3/1 1/4/1
f 3/3/1 29/4/11 30/3/11
f 31/4/12 30/3/11 29/4/11
f 30/3/11 31/4/12 32/3/12
f 5/4/2 32/3/12 31/4/12
f 32/3/12 5/4/2 6/3/2
f 35/5/13 34/5/13 33/5/13
f 34/5/13 35/5/13 36/5/13
f 34/5/13 36/5/13 37/5/13
f 37/5/13 36/5/13 38/5/13
f 37/5/13 38/5/13 39/5/13
f 39/5/13 38/5/13 40/5/13
f 18/4/14 12/4/14 19/4/14
f 12/4/14 18/4/14 10/4/14
f 10/4/14 18/4/14 23/4/14
f 23/4/14 18/4/14 22/4/14
f 22/4/14 18/4/14 15/4/14
f 22/4/14 15/4/14 2/4/14
f 2/4/14 15/4/14 13/4/14
f 2/4/14 13/4/14 1/4/14
f 1/4/14 13/4/14 28/4/14
f 1/4/14 28/4/14 29/4/14
f 29/4/14 28/4/14 25/4/14
f 29/4/14 25/4/14 31/4/14
f 31/4/14 25/4/14 5/4/14
f 5/4/14 25/4/14 7/4/14
f 26/3/13 6/3/13 8/3/13
f 26/3/13 32/3/13 6/3/13
f 41/3/13 32/3/13 26/3/13
f 41/3/13 30/3/13 32/3/13
f 26/3/13 42/3/13 41/3/13
f 27/3/13 42/3/13 26/3/13
f 43/3/13 30/3/13 41/3/13
f 43/3/13 3/3/13 30/3/13
f 43/3/13 4/3/13 3/3/13
f 44/3/13 4/3/13 43/3/13
f 44/3/13 21/3/13 4/3/13
f 45/3/13 21/3/13 44/3/13
f 45/3/13 24/3/13 21/3/13
f 27/3/13 46/3/13 42/3/13
f 14/3/13 46/3/13 27/3/13
f 16/3/13 46/3/13 14/3/13
f 16/3/13 47/3/13 46/3/13
f 24/3/13 45/3/13 48/3/13
f 17/3/13 47/3/13 16/3/13
f 17/3/13 48/3/13 47/3/13
f 48/3/13 9/3/13 24/3/13
f 48/3/13 11/3/13 9/3/13
f 17/3/13 11/3/13 48/3/13
f 11/3/13 17/3/13 20/3/13
f 38/5/5 44/3/10 43/3/5
f 41/3/6 38/5/5 43/3/5
f 44/3/10 38/5/5 36/5/10
f 38/5/5 41/3/6 40/5/6
f 36/5/10 45/3/9 44/3/10
f 45/3/9 36/5/10 35/5/9
f 33/5/12 45/3/9 35/5/9
f 45/3/9 33/5/12 48/3/12
f 42/3/8 40/5/6 41/3/6
f 40/5/6 42/3/8 39/5/8
f 42/3/8 37/5/7 39/5/8
f 37/5/7 42/3/8 46/3/7
f 34/5/11 48/3/12 33/5/12
f 46/3/7 34/5/11 37/5/7
f 48/3/12 34/5/11 47/3/11
f 34/5/11 46/3/7 47/3/11

g lid

v 0.2744475 0.3 0.1136799 1 1 1
v 0.2744475 0.3 0.05 1 1 1
v 0.1136799 0.3 0.2744475 1 1 1
v 0.2744475 0.3 -0.05 1 1 1
v 0.2744475 0.3 -0.1136799 1 1 1
v 0.1136799 0.3 -0.2744475 1 1 1
v 0.05 0.3 0.2744475 1 1 1
v 0.05 0.3 -0.2744475 1 1 1
v -0.05 0.3 0.2744475 1 1 1
v -0.05 0.3 -0.2744475 1 1 1
v -0.1136799 0.3 0.2744475 1 1 1
v -0.1136799 0.3 -0.2744475 1 1 1
v -0.2744475 0.3 0.1136799 1 1 1
v -0.2744475 0.3 -0.1136799 1 1 1
v -0.2744475 0.3 -0.05 1 1 1
v -0.2744475 0.3 0.05 1 1 1
v -0.05 0.4 0.05 1 1 1
v -0.05 0.4 0.2744475 1 1 1
v -0.2744475 0.4 0.05 1 1 1
v -0.1136799 0.4 0.2744475 1 1 1
v -0.2744475 0.4 0.1136799 1 1 1
v 0.05 0.4 0.2744475 1 1 1
v 0.1136799 0.4 0.2744475 1 1 1
v 0.2744475 0.4 0.1136799 1 1 1
v 0.2744475 0.4 0.05 1 1 1
v 0.05 0.4 -0.2744475 1 1 1
v 0.1136799 0.4 -0.2744475 1 1 1
v 0.2744475 0.4 -0.1136799 1 1 1
v 0.2744475 0.4 -0.05 1 1 1
v -0.05 0.4 -0.2744475 1 1 1
v -0.1136799 0.4 -0.2744475 1 1 1
v -0.2744475 0.4 -0.1136799 1 1 1
v -0.2744475 0.4 -0.05 1 1 1
v 0.05 0.4 0.05 1 1 1
v 0.05 0.4 -0.05 1 1 1
v -0.05 0.4 -0.05 1 1 1
v -0.05000001 0.3 -0.2744474 1 1 1
v 0.04999998 0.3 -0.2744474 1 1 1
v -0.05000001 0.4 -0.2744474 1 1 1
v 0.04999998 0.4 -0.2744474 1 1 1
v 0.04999998 0.3 0.2744475 1 1 1
v -0.05000001 0.3 0.2744475 1 1 1
v 0.04999998 0.4 0.2744475 1 1 1
v -0.05000001 0.4 0.2744475 1 1 1
v -0.2744475 0.4 0.05000001 1 1 1
v -0.2744475 0.4 -0.04999998 1 1 1
v -0.05000001 0.4 0.05000001 1 1 1
v -0.05000001 0.4 -0.04999998 1 1 1
v 0.04999998 0.4 0.05000001 1 1 1
v 0.04999998 0.4 -0.04999998 1 1 1
v 0.2744474 0.4 -0.04999998 1 1 1
v 0.2744474 0.4 0.05000001 1 1 1
v 0.2744474 0.3 -0.04999998 1 1 1
v 0.2744474 0.3 0.05000001 1 1 1
v -0.2744475 0.3 -0.04999998 1 1 1
v -0.2744475 0.3 0.05000001 1 1 1
v 0 0.5 -0.05 1 1 1
v 0 0.5 0.05 1 1 1
v -0.07071068 0.5707107 -0.05 1 1 1
v -0.07071068 0.5707107 0.05 1 1 1
v 0.07071068 0.5707107 -0.05 1 1 1
v 0.07071068 0.5707107 0.05 1 1 1
v 0.1414214 0.5414214 -0.05 1 1 1
v 0.1414214 0.5414214 0.05 1 1 1
v 0.1707107 0.4707107 -0.05 1 1 1
v 0.1707107 0.4707107 0.05 1 1 1
v 0.1414214 0.4 -0.05 1 1 1
v 0.1414214 0.4 0.05 1 1 1
v -0.1707107 0.4707107 -0.05 1 1 1
v -0.1707107 0.4707107 0.05 1 1 1
v -0.1414214 0.4 -0.05 1 1 1
v -0.1414214 0.4 0.05 1 1 1
v -0.1414214 0.5414214 -0.05 1 1 1
v -0.1414214 0.5414214 0.05 1 1 1
v 0.08244234 0.5117317 0.05 1 1 1
v 0.103153 0.503153 0.05 1 1 1
v 0.1165911 0.4707107 0.05 1 1 1
v 0.1080124 0.45 0.05 1 1 1
v -0.1080124 0.45 0.05 1 1 1
v 0.02071068 0.45 0.05 1 1 1
v -0.1165911 0.4707107 0.05 1 1 1
v -0.103153 0.503153 0.05 1 1 1
v -0.02071068 0.45 0.05 1 1 1
v -0.08244234 0.5117317 0.05 1 1 1
v 0.103153 0.503153 -0.05 1 1 1
v 0.1165911 0.4707107 -0.05 1 1 1
v 0.08244234 0.5117317 -0.05 1 1 1
v 0.1080124 0.45 -0.05 1 1 1
v 0.02071068 0.45 -0.05 1 1 1
v -0.02071068 0.45 -0.05 1 1 1
v -0.08244234 0.5117317 -0.05 1 1 1
v -0.103153 0.503153 -0.05 1 1 1
v -0.1080124 0.45 -0.05 1 1 1
v -0.1165911 0.4707107 -0.05 1 1 1

vn 0.7071068 0.7071068 0
vn 0.1950903 0.9807853 0
vn -0.1950903 0.9807853 0
vn -0.7071068 0.7071068 0
vn 0.9238795 -0.3826834 0
vn -0.9238795 -0.3826834 0
vn -0.1950903 -0.9807853 0
vn 0.7071068 -0.7071068 0
vn 0.1950903 -0.9807853 0
vn -0.5555702 0.8314696 0
vn -0.7071068 -0.7071068 0
vn 0.5555702 0.8314696 0

vt 0.09375 0.325
vt 0.09375 0.425
vt 0.46875 0.1835786
vt 0.46875 0.2078427
vt 0.46875 0.1664214
vt 0.46875 0.125
vt 0.46875 0.1904509
vt 0.46875 0.1854256
vt 0.46875 0.1542893
vt 0.46875 0.1111033
vt 0.46875 0.05854953

usemtl colormap

f 51/6/14 50/6/14 49/6/14
f 50/6/14 51/6/14 52/6/14
f 52/6/14 51/6/14 53/6/14
f 53/6/14 51/6/14 54/6/14
f 54/6/14 51/6/14 55/6/14
f 54/6/14 55/6/14 56/6/14
f 56/6/14 55/6/14 57/6/14
f 56/6/14 57/6/14 58/6/14
f 58/6/14 57/6/14 59/6/14
f 58/6/14 59/6/14 60/6/14
f 60/6/14 59/6/14 61/6/14
f 60/6/14 61/6/14 62/6/14
f 62/6/14 61/6/14 63/6/14
f 63/6/14 61/6/14 64/6/14
f 67/7/13 66/7/13 65/7/13
f 66/7/13 67/7/13 68/7/13
f 68/7/13 67/7/13 69/7/13
f 51/6/5 70/7/4 55/6/4
f 70/7/4 51/6/5 71/7/5
f 49/6/6 71/7/5 51/6/5
f 71/7/5 49/6/6 72/7/6
f 50/6/3 72/7/6 49/6/6
f 72/7/6 50/6/3 73/7/3
f 64/6/2 69/7/9 67/7/2
f 69/7/9 64/6/2 61/6/9
f 61/6/9 68/7/10 69/7/9
f 68/7/10 61/6/9 59/6/10
f 59/6/10 66/7/4 68/7/10
f 66/7/4 59/6/10 57/6/4
f 74/7/1 54/6/7 56/6/1
f 54/6/7 74/7/1 75/7/7
f 75/7/7 53/6/8 54/6/7
f 53/6/8 75/7/7 76/7/8
f 77/7/3 53/6/8 76/7/8
f 53/6/8 77/7/3 52/6/3
f 60/6/11 78/7/1 58/6/1
f 78/7/1 60/6/11 79/7/11
f 62/6/12 79/7/11 60/6/11
f 79/7/11 62/6/12 80/7/12
f 63/6/2 80/7/12 62/6/12
f 80/7/12 63/6/2 81/7/2
f 73/7/13 71/7/13 72/7/13
f 71/7/13 73/7/13 82/7/13
f 71/7/13 82/7/13 70/7/13
f 76/7/13 83/7/13 77/7/13
f 83/7/13 76/7/13 75/7/13
f 83/7/13 75/7/13 74/7/13
f 79/7/13 84/7/13 78/7/13
f 84/7/13 79/7/13 81/7/13
f 81/7/13 79/7/13 80/7/13
f 87/2/1 86/1/1 85/1/1
f 86/1/1 87/2/1 88/2/1
f 91/2/4 90/1/4 89/1/4
f 90/1/4 91/2/4 92/2/4
f 95/2/13 94/2/13 93/2/13
f 94/2/13 95/2/13 96/2/13
f 92/2/13 96/2/13 95/2/13
f 92/2/13 87/2/13 96/2/13
f 91/2/13 87/2/13 92/2/13
f 97/2/13 87/2/13 91/2/13
f 98/2/13 87/2/13 97/2/13
f 87/2/13 98/2/13 88/2/13
f 97/2/13 99/2/13 98/2/13
f 99/2/13 97/2/13 100/2/13
f 100/2/3 101/1/3 99/2/3
f 101/1/3 100/2/3 102/1/3
f 103/1/2 93/2/2 94/2/2
f 93/2/2 103/1/2 104/1/2
f 107/2/16 106/8/15 105/8/15
f 106/8/15 107/2/16 108/2/16
f 105/8/18 110/2/17 109/2/17
f 110/2/17 105/8/18 106/8/18
f 109/2/17 112/9/15 111/9/15
f 112/9/15 109/2/17 110/2/17
f 111/9/15 114/10/3 113/10/3
f 114/10/3 111/9/15 112/9/15
f 114/10/3 115/11/19 113/10/3
f 115/11/19 114/10/3 116/11/19
f 119/11/20 118/10/2 117/10/2
f 118/10/2 119/11/20 120/11/20
f 118/10/2 121/9/18 117/10/2
f 121/9/18 118/10/2 122/9/18
f 121/9/18 108/2/16 107/2/16
f 108/2/16 121/9/18 122/9/18
f 106/8/4 123/12/4 110/2/4
f 110/2/4 123/12/4 112/9/4
f 124/13/4 112/9/4 123/12/4
f 125/10/4 112/9/4 124/13/4
f 125/10/4 114/10/4 112/9/4
f 126/14/4 114/10/4 125/10/4
f 126/14/4 116/11/4 114/10/4
f 116/11/4 126/14/4 120/11/4
f 127/14/4 120/11/4 126/14/4
f 127/14/4 126/14/4 128/14/4
f 120/11/4 127/14/4 118/10/4
f 118/10/4 127/14/4 129/10/4
f 118/10/4 129/10/4 130/13/4
f 118/10/4 130/13/4 122/9/4
f 127/14/4 128/14/4 131/14/4
f 123/12/4 131/14/4 128/14/4
f 131/14/4 123/12/4 106/8/4
f 122/9/4 130/13/4 132/12/4
f 106/8/4 132/12/4 131/14/4
f 132/12/4 108/2/4 122/9/4
f 132/12/4 106/8/4 108/2/4
f 111/9/1 134/10/1 133/13/1
f 111/9/1 133/13/1 135/12/1
f 113/10/1 134/10/1 111/9/1
f 135/12/1 109/2/1 111/9/1
f 113/10/1 136/14/1 134/10/1
f 135/12/1 105/8/1 109/2/1
f 115/11/1 136/14/1 113/10/1
f 105/8/1 135/12/1 137/14/1
f 136/14/1 115/11/1 138/14/1
f 136/14/1 138/14/1 137/14/1
f 137/14/1 139/12/1 105/8/1
f 139/12/1 137/14/1 138/14/1
f 105/8/1 139/12/1 107/2/1
f 107/2/1 139/12/1 121/9/1
f 140/13/1 121/9/1 139/12/1
f 138/14/1 115/11/1 141/14/1
f 119/11/1 141/14/1 115/11/1
f 140/13/1 117/10/1 121/9/1
f 141/14/1 119/11/1 117/10/1
f 142/10/1 117/10/1 140/13/1
f 141/14/1 117/10/1 142/10/1
f 132/11/21 140/15/22 139/11/21
f 140/15/22 132/11/21 130/15/22
f 130/15/22 142/16/3 140/15/22
f 142/16/3 130/15/22 129/16/3
f 135/11/23 128/1/22 137/1/22
f 128/1/22 135/11/23 123/11/23
f 136/1/24 128/1/13 126/1/24
f 128/1/13 136/1/24 137/1/13
f 125/16/2 133/15/25 134/16/2
f 133/15/25 125/16/2 124/15/25
f 123/11/23 133/15/25 124/15/25
f 133/15/25 123/11/23 135/11/23
f 129/16/3 141/1/26 142/16/3
f 141/1/26 129/16/3 127/1/26
f 141/1/26 131/1/13 138/1/13
f 131/1/13 141/1/26 127/1/26
f 138/1/25 132/11/21 139/11/21
f 132/11/21 138/1/25 131/1/25
f 136/1/24 125/16/2 134/16/2
f 125/16/2 136/1/24 126/1/24

