# Created by Kenney (www.kenney.nl)

mtllib present-b-rectangle.mtl

g present-b-rectangle

v -0.05 0 0.2 1 1 1
v -0.05 0.2 0.2 1 1 1
v 0.05 4.849107E-17 0.2 1 1 1
v 0.05 0.2 0.2 1 1 1
v -0.05 0 -0.2 1 1 1
v 0.05 4.849107E-17 -0.2 1 1 1
v -0.05 0.2 -0.2 1 1 1
v 0.05 0.2 -0.2 1 1 1
v -0.3 0 -0.05 1 1 1
v -0.3 0.2 -0.05 1 1 1
v -0.3 0 0.05 1 1 1
v -0.3 0.2 0.05 1 1 1
v 0.3 0.2 -0.05 1 1 1
v 0.3 0 -0.05 1 1 1
v 0.3 0.2 0.05 1 1 1
v 0.3 0 0.05 1 1 1
v 0.3 0.2 0.15 1 1 1
v 0.3 0 0.15 1 1 1
v -0.25 0 0.2 1 1 1
v -0.25 0.2 0.2 1 1 1
v -0.25 0 -0.2 1 1 1
v -0.25 0.2 -0.2 1 1 1
v -0.3 0 -0.15 1 1 1
v -0.3 0.2 -0.15 1 1 1
v -0.3 0 0.15 1 1 1
v -0.3 0.2 0.15 1 1 1
v 0.25 0.2 -0.2 1 1 1
v 0.25 0 -0.2 1 1 1
v 0.3 0.2 -0.15 1 1 1
v 0.3 0 -0.15 1 1 1
v 0.25 0.2 0.2 1 1 1
v 0.25 0 0.2 1 1 1
v -0.25 0.2 0.1292893 1 1 1
v -0.25 0.2 -0.1292893 1 1 1
v -0.2292893 0.2 0.15 1 1 1
v 0.2292893 0.2 0.15 1 1 1
v -0.2292893 0.2 -0.15 1 1 1
v 0.2292893 0.2 -0.15 1 1 1
v 0.25 0.2 0.1292893 1 1 1
v 0.25 0.2 -0.1292893 1 1 1
v 0.15 4.849107E-17 -0.2 1 1 1
v 0.25 0.1 -0.1292893 1 1 1
v 0.25 0.1 0.1292893 1 1 1
v 0.2292893 0.1 -0.15 1 1 1
v 0.2292893 0.1 0.15 1 1 1
v -0.2292893 0.1 -0.15 1 1 1
v -0.2292893 0.1 0.15 1 1 1
v -0.25 0.1 -0.1292893 1 1 1
v -0.25 0.1 0.1292893 1 1 1

vn 0 0 1
vn 0 0 -1
vn -1 0 0
vn 1 0 0
vn 0.9238795 0 0.3826834
vn -0.3826834 0 0.9238795
vn -0.3826834 0 -0.9238795
vn -0.9238795 0 -0.3826834
vn -0.9238795 0 0.3826834
vn 0.3826834 0 -0.9238795
vn 0.9238795 0 -0.3826834
vn 0.3826834 0 0.9238795
vn 0 1 0
vn 0 -1 0

vt 0.46875 0.275
vt 0.46875 0.475
vt 0.21875 0.025
vt 0.21875 0.225
vt 0.21875 0.125

usemtl colormap

f 3/1/1 2/2/1 1/1/1
f 2/2/1 3/1/1 4/2/1
f 7/2/2 6/1/2 5/1/2
f 6/1/2 7/2/2 8/2/2
f 11/1/3 10/2/3 9/1/3
f 10/2/3 11/1/3 12/2/3
f 15/2/4 14/1/4 13/2/4
f 14/1/4 15/2/4 16/1/4
f 17/3/5 16/4/4 15/3/4
f 16/4/4 17/3/5 18/4/5
f 2/3/1 19/4/6 1/4/1
f 19/4/6 2/3/1 20/3/6
f 23/4/8 22/3/7 21/4/7
f 22/3/7 23/4/8 24/3/8
f 19/4/6 26/3/9 25/4/9
f 26/3/9 19/4/6 20/3/6
f 29/3/11 28/4/10 27/3/10
f 28/4/10 29/3/11 30/4/11
f 31/3/12 18/4/5 17/3/5
f 18/4/5 31/3/12 32/4/12
f 26/3/13 10/3/13 12/3/13
f 26/3/13 24/3/13 10/3/13
f 20/3/13 24/3/13 26/3/13
f 33/3/13 24/3/13 20/3/13
f 34/3/13 24/3/13 33/3/13
f 34/3/13 22/3/13 24/3/13
f 20/3/13 35/3/13 33/3/13
f 2/3/13 35/3/13 20/3/13
f 4/3/13 35/3/13 2/3/13
f 4/3/13 36/3/13 35/3/13
f 37/3/13 22/3/13 34/3/13
f 37/3/13 7/3/13 22/3/13
f 37/3/13 8/3/13 7/3/13
f 38/3/13 8/3/13 37/3/13
f 31/3/13 36/3/13 4/3/13
f 38/3/13 27/3/13 8/3/13
f 31/3/13 39/3/13 36/3/13
f 31/3/13 40/3/13 39/3/13
f 27/3/13 38/3/13 40/3/13
f 31/3/13 27/3/13 40/3/13
f 17/3/13 27/3/13 31/3/13
f 15/3/13 27/3/13 17/3/13
f 13/3/13 27/3/13 15/3/13
f 27/3/13 13/3/13 29/3/13
f 32/4/14 16/4/14 18/4/14
f 16/4/14 32/4/14 14/4/14
f 14/4/14 32/4/14 30/4/14
f 30/4/14 32/4/14 28/4/14
f 28/4/14 32/4/14 3/4/14
f 28/4/14 3/4/14 41/4/14
f 41/4/14 3/4/14 5/4/14
f 5/4/14 3/4/14 1/4/14
f 5/4/14 1/4/14 19/4/14
f 5/4/14 19/4/14 21/4/14
f 21/4/14 19/4/14 25/4/14
f 21/4/14 25/4/14 23/4/14
f 23/4/14 25/4/14 11/4/14
f 23/4/14 11/4/14 9/4/14
f 44/5/13 43/5/13 42/5/13
f 43/5/13 44/5/13 45/5/13
f 45/5/13 44/5/13 46/5/13
f 45/5/13 46/5/13 47/5/13
f 47/5/13 46/5/13 48/5/13
f 47/5/13 48/5/13 49/5/13
f 40/3/9 44/5/6 42/5/9
f 44/5/6 40/3/9 38/3/6
f 38/3/6 46/5/12 44/5/6
f 46/5/12 38/3/6 37/3/12
f 34/3/5 46/5/12 37/3/12
f 46/5/12 34/3/5 48/5/5
f 33/3/11 48/5/5 34/3/5
f 48/5/5 33/3/11 49/5/11
f 35/3/10 49/5/11 33/3/11
f 49/5/11 35/3/10 47/5/10
f 35/3/10 45/5/7 47/5/10
f 45/5/7 35/3/10 36/3/7
f 36/3/7 43/5/8 45/5/7
f 43/5/8 36/3/7 39/3/8
f 43/5/8 40/3/9 42/5/9
f 40/3/9 43/5/8 39/3/8
f 13/3/4 30/4/11 29/3/11
f 30/4/11 13/3/4 14/4/4
f 9/4/3 24/3/8 23/4/8
f 24/3/8 9/4/3 10/3/3
f 31/3/12 3/4/1 32/4/12
f 3/4/1 31/3/12 4/3/1
f 22/3/7 5/4/2 21/4/7
f 5/4/2 22/3/7 7/3/2
f 41/4/2 27/3/10 28/4/10
f 27/3/10 41/4/2 8/3/2
f 25/4/9 12/3/3 11/4/3
f 12/3/3 25/4/9 26/3/9

g present-b-rectangle




usemtl colormap

f 3/1/1 2/2/1 1/1/1
f 2/2/1 3/1/1 4/2/1
f 7/2/2 6/1/2 5/1/2
f 6/1/2 7/2/2 8/2/2
f 11/1/3 10/2/3 9/1/3
f 10/2/3 11/1/3 12/2/3
f 15/2/4 14/1/4 13/2/4
f 14/1/4 15/2/4 16/1/4
f 17/3/5 16/4/4 15/3/4
f 16/4/4 17/3/5 18/4/5
f 2/3/1 19/4/6 1/4/1
f 19/4/6 2/3/1 20/3/6
f 23/4/8 22/3/7 21/4/7
f 22/3/7 23/4/8 24/3/8
f 19/4/6 26/3/9 25/4/9
f 26/3/9 19/4/6 20/3/6
f 29/3/11 28/4/10 27/3/10
f 28/4/10 29/3/11 30/4/11
f 31/3/12 18/4/5 17/3/5
f 18/4/5 31/3/12 32/4/12
f 26/3/13 10/3/13 12/3/13
f 26/3/13 24/3/13 10/3/13
f 20/3/13 24/3/13 26/3/13
f 33/3/13 24/3/13 20/3/13
f 34/3/13 24/3/13 33/3/13
f 34/3/13 22/3/13 24/3/13
f 20/3/13 35/3/13 33/3/13
f 2/3/13 35/3/13 20/3/13
f 4/3/13 35/3/13 2/3/13
f 4/3/13 36/3/13 35/3/13
f 37/3/13 22/3/13 34/3/13
f 37/3/13 7/3/13 22/3/13
f 37/3/13 8/3/13 7/3/13
f 38/3/13 8/3/13 37/3/13
f 31/3/13 36/3/13 4/3/13
f 38/3/13 27/3/13 8/3/13
f 31/3/13 39/3/13 36/3/13
f 31/3/13 40/3/13 39/3/13
f 27/3/13 38/3/13 40/3/13
f 31/3/13 27/3/13 40/3/13
f 17/3/13 27/3/13 31/3/13
f 15/3/13 27/3/13 17/3/13
f 13/3/13 27/3/13 15/3/13
f 27/3/13 13/3/13 29/3/13
f 32/4/14 16/4/14 18/4/14
f 16/4/14 32/4/14 14/4/14
f 14/4/14 32/4/14 30/4/14
f 30/4/14 32/4/14 28/4/14
f 28/4/14 32/4/14 3/4/14
f 28/4/14 3/4/14 41/4/14
f 41/4/14 3/4/14 5/4/14
f 5/4/14 3/4/14 1/4/14
f 5/4/14 1/4/14 19/4/14
f 5/4/14 19/4/14 21/4/14
f 21/4/14 19/4/14 25/4/14
f 21/4/14 25/4/14 23/4/14
f 23/4/14 25/4/14 11/4/14
f 23/4/14 11/4/14 9/4/14
f 44/5/13 43/5/13 42/5/13
f 43/5/13 44/5/13 45/5/13
f 45/5/13 44/5/13 46/5/13
f 45/5/13 46/5/13 47/5/13
f 47/5/13 46/5/13 48/5/13
f 47/5/13 48/5/13 49/5/13
f 40/3/9 44/5/6 42/5/9
f 44/5/6 40/3/9 38/3/6
f 38/3/6 46/5/12 44/5/6
f 46/5/12 38/3/6 37/3/12
f 34/3/5 46/5/12 37/3/12
f 46/5/12 34/3/5 48/5/5
f 33/3/11 48/5/5 34/3/5
f 48/5/5 33/3/11 49/5/11
f 35/3/10 49/5/11 33/3/11
f 49/5/11 35/3/10 47/5/10
f 35/3/10 45/5/7 47/5/10
f 45/5/7 35/3/10 36/3/7
f 36/3/7 43/5/8 45/5/7
f 43/5/8 36/3/7 39/3/8
f 43/5/8 40/3/9 42/5/9
f 40/3/9 43/5/8 39/3/8
f 13/3/4 30/4/11 29/3/11
f 30/4/11 13/3/4 14/4/4
f 9/4/3 24/3/8 23/4/8
f 24/3/8 9/4/3 10/3/3
f 31/3/12 3/4/1 32/4/12
f 3/4/1 31/3/12 4/3/1
f 22/3/7 5/4/2 21/4/7
f 5/4/2 22/3/7 7/3/2
f 41/4/2 27/3/10 28/4/10
f 27/3/10 41/4/2 8/3/2
f 25/4/9 12/3/3 11/4/3
f 12/3/3 25/4/9 26/3/9

g lid

v 0.325 0.2 0.05 1 1 1
v 0.325 0.2 -0.05 1 1 1
v 0.325 0.2 0.1603553 1 1 1
v 0.2603553 0.2 0.225 1 1 1
v 0.2603553 0.2 -0.225 1 1 1
v 0.325 0.2 -0.1603553 1 1 1
v 0.05 0.2 0.225 1 1 1
v 0.05 0.2 -0.225 1 1 1
v -0.05 0.2 -0.225 1 1 1
v -0.05 0.2 0.225 1 1 1
v -0.2603553 0.2 0.225 1 1 1
v -0.2603553 0.2 -0.225 1 1 1
v -0.325 0.2 0.1603553 1 1 1
v -0.325 0.2 0.05 1 1 1
v -0.325 0.2 -0.1603553 1 1 1
v -0.325 0.2 -0.05 1 1 1
v 0.325 0.3 -0.1603553 1 1 1
v 0.325 0.3 -0.05 1 1 1
v 0.2603553 0.3 -0.225 1 1 1
v 0.05 0.3 -0.05 1 1 1
v 0.05 0.3 -0.225 1 1 1
v -0.325 0.3 0.1603553 1 1 1
v -0.2603553 0.3 0.225 1 1 1
v 0.2603553 0.3 0.225 1 1 1
v 0.05 0.3 0.225 1 1 1
v 0.325 0.3 0.1603553 1 1 1
v -0.2603553 0.3 -0.225 1 1 1
v -0.325 0.3 -0.1603553 1 1 1
v -0.325 0.3 -0.05 1 1 1
v -0.05 0.3 0.225 1 1 1
v 0.325 0.3 0.05 1 1 1
v -0.325 0.3 0.05 1 1 1
v -0.05 0.3 -0.225 1 1 1
v -0.05 0.3 -0.05 1 1 1
v 0.05 0.3 0.05 1 1 1
v -0.05 0.3 0.05 1 1 1
v 0 0.4 -0.05 1 1 1
v 0 0.4 0.05 1 1 1
v -0.07071068 0.4707107 -0.05 1 1 1
v -0.07071068 0.4707107 0.05 1 1 1
v 0.07071068 0.4707107 -0.05 1 1 1
v 0.07071068 0.4707107 0.05 1 1 1
v 0.1414214 0.4414214 -0.05 1 1 1
v 0.1414214 0.4414214 0.05 1 1 1
v 0.1707107 0.3707107 -0.05 1 1 1
v 0.1707107 0.3707107 0.05 1 1 1
v 0.1414214 0.3 -0.05 1 1 1
v 0.1414214 0.3 0.05 1 1 1
v -0.1707107 0.3707107 -0.05 1 1 1
v -0.1707107 0.3707107 0.05 1 1 1
v -0.1414214 0.3 -0.05 1 1 1
v -0.1414214 0.3 0.05 1 1 1
v -0.1414214 0.4414214 -0.05 1 1 1
v -0.1414214 0.4414214 0.05 1 1 1
v 0.08244234 0.4117317 0.05 1 1 1
v 0.103153 0.403153 0.05 1 1 1
v 0.1165911 0.3707107 0.05 1 1 1
v 0.1080124 0.35 0.05 1 1 1
v -0.1080124 0.35 0.05 1 1 1
v 0.02071068 0.35 0.05 1 1 1
v -0.1165911 0.3707107 0.05 1 1 1
v -0.02071068 0.35 0.05 1 1 1
v -0.103153 0.403153 0.05 1 1 1
v -0.08244234 0.4117317 0.05 1 1 1
v 0.103153 0.403153 -0.05 1 1 1
v 0.1165911 0.3707107 -0.05 1 1 1
v 0.08244234 0.4117317 -0.05 1 1 1
v 0.1080124 0.35 -0.05 1 1 1
v 0.02071068 0.35 -0.05 1 1 1
v -0.02071068 0.35 -0.05 1 1 1
v -0.08244234 0.4117317 -0.05 1 1 1
v -0.103153 0.403153 -0.05 1 1 1
v -0.1080124 0.35 -0.05 1 1 1
v -0.1165911 0.3707107 -0.05 1 1 1

vn 0.7071068 0.7071068 0
vn 0.1950903 0.9807853 0
vn -0.1950903 0.9807853 0
vn -0.7071068 0.7071068 0
vn 0.9238795 -0.3826834 0
vn -0.9238795 -0.3826834 0
vn -0.1950903 -0.9807853 0
vn 0.7071068 -0.7071068 0
vn 0.1950903 -0.9807853 0
vn -0.5555702 0.8314696 0
vn -0.7071068 -0.7071068 0
vn 0.5555702 0.8314696 0

vt 0.21875 0.075
vt 0.21875 0.175
vt 0.46875 0.4335786
vt 0.46875 0.4578427
vt 0.46875 0.4164214
vt 0.46875 0.375
vt 0.46875 0.4404509
vt 0.46875 0.4354256
vt 0.46875 0.4042893
vt 0.46875 0.3611033
vt 0.46875 0.3085495

usemtl colormap

f 52/6/14 51/6/14 50/6/14
f 51/6/14 52/6/14 53/6/14
f 54/6/14 51/6/14 53/6/14
f 51/6/14 54/6/14 55/6/14
f 54/6/14 53/6/14 56/6/14
f 54/6/14 56/6/14 57/6/14
f 57/6/14 56/6/14 58/6/14
f 58/6/14 56/6/14 59/6/14
f 58/6/14 59/6/14 60/6/14
f 58/6/14 60/6/14 61/6/14
f 61/6/14 60/6/14 62/6/14
f 61/6/14 62/6/14 63/6/14
f 63/6/14 64/6/14 61/6/14
f 64/6/14 63/6/14 65/6/14
f 68/7/13 67/7/13 66/7/13
f 67/7/13 68/7/13 69/7/13
f 69/7/13 68/7/13 70/7/13
f 60/6/6 71/7/9 62/6/9
f 71/7/9 60/6/6 72/7/6
f 73/7/12 56/6/1 53/6/12
f 56/6/1 73/7/12 74/7/1
f 73/7/12 52/6/5 75/7/5
f 52/6/5 73/7/12 53/6/12
f 66/7/11 54/6/10 68/7/10
f 54/6/10 66/7/11 55/6/11
f 64/6/8 76/7/7 61/6/7
f 76/7/7 64/6/8 77/7/8
f 65/6/3 77/7/8 64/6/8
f 77/7/8 65/6/3 78/7/3
f 59/6/1 72/7/6 60/6/6
f 72/7/6 59/6/1 79/7/1
f 67/7/4 55/6/11 66/7/11
f 55/6/11 67/7/4 51/6/4
f 75/7/5 50/6/4 80/7/4
f 50/6/4 75/7/5 52/6/5
f 62/6/9 81/7/3 63/6/3
f 81/7/3 62/6/9 71/7/9
f 70/7/2 54/6/10 57/6/2
f 54/6/10 70/7/2 68/7/10
f 76/7/7 58/6/2 61/6/7
f 58/6/2 76/7/7 82/7/2
f 76/7/13 83/7/13 82/7/13
f 83/7/13 76/7/13 78/7/13
f 78/7/13 76/7/13 77/7/13
f 84/7/13 75/7/13 80/7/13
f 75/7/13 84/7/13 73/7/13
f 73/7/13 84/7/13 74/7/13
f 81/7/13 79/7/13 85/7/13
f 79/7/13 81/7/13 72/7/13
f 72/7/13 81/7/13 71/7/13
f 80/2/4 51/1/4 67/2/4
f 51/1/4 80/2/4 50/1/4
f 85/2/13 78/2/13 81/2/13
f 78/2/13 85/2/13 83/2/13
f 79/2/13 83/2/13 85/2/13
f 79/2/13 82/2/13 83/2/13
f 74/2/13 82/2/13 79/2/13
f 84/2/13 82/2/13 74/2/13
f 69/2/13 82/2/13 84/2/13
f 82/2/13 69/2/13 70/2/13
f 84/2/13 67/2/13 69/2/13
f 67/2/13 84/2/13 80/2/13
f 63/1/3 78/2/3 65/1/3
f 78/2/3 63/1/3 81/2/3
f 82/2/2 57/1/2 58/1/2
f 57/1/2 82/2/2 70/2/2
f 74/2/1 59/1/1 56/1/1
f 59/1/1 74/2/1 79/2/1
f 88/2/16 87/8/15 86/8/15
f 87/8/15 88/2/16 89/2/16
f 86/8/18 91/2/17 90/2/17
f 91/2/17 86/8/18 87/8/18
f 90/2/17 93/9/15 92/9/15
f 93/9/15 90/2/17 91/2/17
f 92/9/15 95/10/4 94/10/4
f 95/10/4 92/9/15 93/9/15
f 95/10/4 96/11/19 94/10/4
f 96/11/19 95/10/4 97/11/19
f 100/11/20 99/10/3 98/10/3
f 99/10/3 100/11/20 101/11/20
f 99/10/3 102/9/18 98/10/3
f 102/9/18 99/10/3 103/9/18
f 102/9/18 89/2/16 88/2/16
f 89/2/16 102/9/18 103/9/18
f 87/8/1 104/12/1 91/2/1
f 91/2/1 104/12/1 93/9/1
f 105/13/1 93/9/1 104/12/1
f 106/10/1 93/9/1 105/13/1
f 106/10/1 95/10/1 93/9/1
f 107/14/1 95/10/1 106/10/1
f 107/14/1 97/11/1 95/10/1
f 97/11/1 107/14/1 101/11/1
f 108/14/1 101/11/1 107/14/1
f 108/14/1 107/14/1 109/14/1
f 101/11/1 108/14/1 99/10/1
f 99/10/1 108/14/1 110/10/1
f 108/14/1 109/14/1 111/14/1
f 104/12/1 111/14/1 109/14/1
f 111/14/1 104/12/1 87/8/1
f 99/10/1 110/10/1 103/9/1
f 103/9/1 110/10/1 112/13/1
f 87/8/1 113/12/1 111/14/1
f 103/9/1 112/13/1 113/12/1
f 113/12/1 87/8/1 89/2/1
f 113/12/1 89/2/1 103/9/1
f 92/9/2 115/10/2 114/13/2
f 92/9/2 114/13/2 116/12/2
f 94/10/2 115/10/2 92/9/2
f 116/12/2 90/2/2 92/9/2
f 94/10/2 117/14/2 115/10/2
f 116/12/2 86/8/2 90/2/2
f 96/11/2 117/14/2 94/10/2
f 86/8/2 116/12/2 118/14/2
f 117/14/2 96/11/2 119/14/2
f 117/14/2 119/14/2 118/14/2
f 118/14/2 120/12/2 86/8/2
f 120/12/2 118/14/2 119/14/2
f 86/8/2 120/12/2 88/2/2
f 88/2/2 120/12/2 102/9/2
f 121/13/2 102/9/2 120/12/2
f 119/14/2 96/11/2 122/14/2
f 100/11/2 122/14/2 96/11/2
f 121/13/2 98/10/2 102/9/2
f 122/14/2 100/11/2 98/10/2
f 123/10/2 98/10/2 121/13/2
f 122/14/2 98/10/2 123/10/2
f 113/11/21 121/15/22 120/11/21
f 121/15/22 113/11/21 112/15/22
f 112/15/22 123/16/4 121/15/22
f 123/16/4 112/15/22 110/16/4
f 116/11/23 109/1/22 118/1/22
f 109/1/22 116/11/23 104/11/23
f 117/1/24 109/1/13 107/1/24
f 109/1/13 117/1/24 118/1/13
f 106/16/3 114/15/25 115/16/3
f 114/15/25 106/16/3 105/15/25
f 104/11/23 114/15/25 105/15/25
f 114/15/25 104/11/23 116/11/23
f 110/16/4 122/1/26 123/16/4
f 122/1/26 110/16/4 108/1/26
f 122/1/26 111/1/13 119/1/13
f 111/1/13 122/1/26 108/1/26
f 119/1/25 113/11/21 120/11/21
f 113/11/21 119/1/25 111/1/25
f 117/1/24 106/16/3 115/16/3
f 106/16/3 117/1/24 107/1/24

