# Created by Kenney (www.kenney.nl)

mtllib tree.mtl

g tree

v 0.54145 0.345 7.670309E-17 1 1 1
v 0.382863 0.345 -0.382863 1 1 1
v 0.382863 0.345 0.382863 1 1 1
v 4.602186E-16 0.345 -0.54145 1 1 1
v 4.602186E-16 0.345 0.54145 1 1 1
v -0.382863 0.345 0.382863 1 1 1
v -0.382863 0.345 -0.382863 1 1 1
v -0.54145 0.345 -7.670309E-17 1 1 1
v 0.595 0.43 2.301093E-16 1 1 1
v 0.4207285 0.43 0.4207285 1 1 1
v -0.4207285 0.43 -0.4207285 1 1 1
v -1.534062E-16 0.43 -0.595 1 1 1
v -1.534062E-16 0.43 0.595 1 1 1
v -0.595 0.43 7.670309E-17 1 1 1
v -0.4207285 0.43 0.4207285 1 1 1
v 0.4207285 0.43 -0.4207285 1 1 1
v 0.34748 0.9825001 -6.903278E-16 1 1 1
v 0.2457055 0.9825001 0.2457055 1 1 1
v 0.2457055 0.9825001 -0.2457055 1 1 1
v -1.073843E-15 0.9825001 -0.34748 1 1 1
v -1.073843E-15 0.9825001 0.34748 1 1 1
v -0.2457055 0.9825001 -0.2457055 1 1 1
v -0.2457055 0.9825001 0.2457055 1 1 1
v -0.34748 0.9825001 -6.903278E-16 1 1 1
v -0.434588 0.6425 -7.670309E-17 1 1 1
v -0.3073001 0.6425 0.3073001 1 1 1
v -0.3073001 0.6425 -0.3073001 1 1 1
v 0.3073001 0.6425 -0.3073001 1 1 1
v 0.434588 0.6425 2.301093E-16 1 1 1
v -1.534062E-16 0.6425 -0.434588 1 1 1
v 0.3073001 0.6425 0.3073001 1 1 1
v -1.534062E-16 0.6425 0.434588 1 1 1
v 0.3250866 1.272372 -7.219114E-16 1 1 1
v 0.2298709 1.272372 -0.2298709 1 1 1
v 0.2298709 1.272372 0.2298709 1 1 1
v 1.443823E-15 1.272372 -0.3250866 1 1 1
v 1.443823E-15 1.272372 0.3250866 1 1 1
v -0.2298709 1.272372 0.2298709 1 1 1
v -0.2298709 1.272372 -0.2298709 1 1 1
v -0.3250866 1.272372 -7.219114E-16 1 1 1
v 0.357238 1.323406 -3.534911E-16 1 1 1
v 0.2526054 1.323406 0.2526054 1 1 1
v -0.2526054 1.323406 -0.2526054 1 1 1
v 1.443823E-15 1.323406 -0.357238 1 1 1
v 1.443823E-15 1.323406 0.357238 1 1 1
v -0.357238 1.323406 -7.219114E-16 1 1 1
v -0.2526054 1.323406 0.2526054 1 1 1
v 0.2526054 1.323406 -0.2526054 1 1 1
v -0.184503 1.450992 -0.184503 1 1 1
v 1.443823E-15 1.450992 -0.2609266 1 1 1
v -0.2609266 1.450992 -7.219114E-16 1 1 1
v 0.184503 1.450992 0.184503 1 1 1
v 1.443823E-15 1.450992 0.2609266 1 1 1
v 0.184503 1.450992 -0.184503 1 1 1
v -0.184503 1.450992 0.184503 1 1 1
v 0.2609266 1.450992 -3.534911E-16 1 1 1
v 0.03442345 1.920451 3.833494E-16 1 1 1
v 0.02434105 1.920451 0.02434105 1 1 1
v 0.02434105 1.920451 -0.02434105 1 1 1
v 1.175959E-14 1.920451 -0.03442345 1 1 1
v 1.175959E-14 1.920451 0.03442345 1 1 1
v -0.02434105 1.920451 -0.02434105 1 1 1
v -0.02434105 1.920451 0.02434105 1 1 1
v -0.03442345 1.920451 3.833494E-16 1 1 1
v -0.09957705 1.720451 -0.09957705 1 1 1
v 1.323327E-14 1.720451 -0.1408232 1 1 1
v 0.09957705 1.720451 -0.09957705 1 1 1
v 0.1408232 1.720451 3.330711E-15 1 1 1
v -0.1408232 1.720451 3.330711E-15 1 1 1
v -0.09957705 1.720451 0.09957705 1 1 1
v 1.323327E-14 1.720451 0.1408232 1 1 1
v 0.09957705 1.720451 0.09957705 1 1 1
v 0.411502 0.8214999 -3.026614E-16 1 1 1
v 0.2909758 0.8214999 -0.2909758 1 1 1
v 0.2909758 0.8214999 0.2909758 1 1 1
v 1.793589E-15 0.8214999 -0.411502 1 1 1
v 1.793589E-15 0.8214999 0.411502 1 1 1
v -0.2909758 0.8214999 0.2909758 1 1 1
v -0.2909758 0.8214999 -0.2909758 1 1 1
v -0.411502 0.8214999 -4.1925E-16 1 1 1
v 0.4522 0.8860999 -1.860727E-16 1 1 1
v 0.3197537 0.8860999 0.3197537 1 1 1
v -0.3197537 0.8860999 -0.3197537 1 1 1
v 1.327234E-15 0.8860999 -0.4522 1 1 1
v 1.327234E-15 0.8860999 0.4522 1 1 1
v -0.4522 0.8860999 -3.026614E-16 1 1 1
v -0.3197537 0.8860999 0.3197537 1 1 1
v 0.3197537 0.8860999 -0.3197537 1 1 1
v 0.2640848 1.306 -8.856048E-16 1 1 1
v 0.1867362 1.306 0.1867362 1 1 1
v 0.1867362 1.306 -0.1867362 1 1 1
v 6.277019E-16 1.306 -0.2640848 1 1 1
v 6.277019E-16 1.306 0.2640848 1 1 1
v -0.1867362 1.306 -0.1867362 1 1 1
v -0.1867362 1.306 0.1867362 1 1 1
v -0.2640848 1.306 -8.856048E-16 1 1 1
v -0.3302869 1.0476 -4.1925E-16 1 1 1
v -0.2335481 1.0476 0.2335481 1 1 1
v -0.2335481 1.0476 -0.2335481 1 1 1
v 0.2335481 1.0476 -0.2335481 1 1 1
v 0.3302869 1.0476 -1.860727E-16 1 1 1
v 1.327234E-15 1.0476 -0.3302869 1 1 1
v 0.2335481 1.0476 0.2335481 1 1 1
v 1.327234E-15 1.0476 0.3302869 1 1 1
v -1.804779E-15 0 0.234 1 1 1
v -0.165463 0 0.165463 1 1 1
v -3.609557E-16 0.1035 0.164 1 1 1
v -0.1159655 0.1035 0.1159655 1 1 1
v 0.234 0 9.023893E-16 1 1 1
v 0.165463 0 -0.165463 1 1 1
v 0.165463 0 0.165463 1 1 1
v -1.804779E-15 0 -0.234 1 1 1
v -0.165463 0 -0.165463 1 1 1
v -0.234 0 9.023893E-16 1 1 1
v 0.164 0.1035 2.346212E-15 1 1 1
v 0.1159655 0.1035 0.1159655 1 1 1
v 0.1159655 0.1035 -0.1159655 1 1 1
v 3.970513E-15 0.345 0.114 1 1 1
v -0.08061017 0.345 0.08061017 1 1 1
v -0.114 0.345 1.263345E-15 1 1 1
v -0.164 0.1035 2.346212E-15 1 1 1
v 0.114 0.345 1.263345E-15 1 1 1
v 0.08061017 0.345 0.08061017 1 1 1
v -3.609557E-16 0.1035 -0.164 1 1 1
v 3.970513E-15 0.345 -0.114 1 1 1
v 0.08061017 0.345 -0.08061017 1 1 1
v -0.1159655 0.1035 -0.1159655 1 1 1
v -0.08061017 0.345 -0.08061017 1 1 1

vn 0 -0.9999999 0
vn 0.8460914 -0.5330377 0
vn 0.598277 -0.5330377 0.598277
vn 0.9993024 0.03734373 0
vn 0.7066135 0.03734374 0.7066135
vn -0.598277 -0.5330377 -0.598277
vn 0 -0.5330377 -0.8460914
vn -0.7066135 0.03734374 -0.7066135
vn 0 0.03734373 -0.9993024
vn 0 -0.5330377 0.8460914
vn 0 0.03734373 0.9993024
vn -0.9993024 0.03734373 0
vn -0.8460914 -0.5330377 0
vn -0.598277 -0.5330377 0.598277
vn -0.7066135 0.03734374 0.7066135
vn 0.7066135 0.03734374 -0.7066135
vn 0.598277 -0.5330377 -0.598277
vn 0 0.9999999 0
vn -0.89111 0.4537873 0
vn -0.6301098 0.4537872 0.6301098
vn -0.6301098 0.4537872 -0.6301098
vn 0.6301098 0.4537872 -0.6301098
vn 0.89111 0.4537873 0
vn 0 0.4537873 -0.89111
vn 0.6301098 0.4537872 0.6301098
vn 0 0.4537873 0.89111
vn 0.6849834 0.2481842 0.6849834
vn 0 0.2481842 0.9687128
vn 0.9687128 0.2481842 0
vn 0.6849834 0.2481842 -0.6849834
vn 0 0.2481842 -0.9687128
vn -0.6849834 0.2481842 0.6849834
vn -0.9687128 0.2481842 0
vn -0.6849834 0.2481842 -0.6849834
vn 0 -1 0
vn 0.8460915 -0.5330377 0
vn 0.5982771 -0.5330377 0.5982771
vn 0.9993025 0.03734374 0
vn 0.7066136 0.03734374 0.7066136
vn -0.5982771 -0.5330377 -0.5982771
vn 0 -0.5330377 -0.8460915
vn -0.7066136 0.03734374 -0.7066136
vn 0 0.03734374 -0.9993025
vn 0 -0.5330377 0.8460915
vn 0 0.03734374 0.9993025
vn -0.9993025 0.03734374 0
vn -0.8460915 -0.5330377 0
vn -0.5982771 -0.5330377 0.5982771
vn -0.7066136 0.03734374 0.7066136
vn 0.7066136 0.03734374 -0.7066136
vn 0.5982771 -0.5330377 -0.5982771
vn -0.6037113 0.5206393 -0.6037113
vn 0 0.5206394 -0.8537768
vn -0.8537768 0.5206394 0
vn 0.6037113 0.5206393 0.6037113
vn 0 0.5206394 0.8537768
vn 0.6037113 0.5206393 -0.6037113
vn -0.6037113 0.5206393 0.6037113
vn 0.8537768 0.5206394 0
vn 0 1 0
vn -0.6365868 0.4353325 -0.6365868
vn 0 0.4353325 -0.9002697
vn 0.6365868 0.4353325 -0.6365868
vn 0.9002697 0.4353325 0
vn -0.9002697 0.4353325 0
vn -0.6365868 0.4353325 0.6365868
vn 0 0.4353325 0.9002697
vn 0.6365868 0.4353325 0.6365868
vn -0.8828417 0.4696708 0
vn -0.6242633 0.4696708 0.6242633
vn -0.6242633 0.4696708 -0.6242633
vn 0 0.4696708 -0.8828417
vn 0.6242633 0.4696708 0.6242633
vn 0 0.4696708 0.8828417
vn 0.8828417 0.4696708 0
vn 0.6242633 0.4696708 -0.6242633
vn -0.8911101 0.4537873 0
vn -0.6301099 0.4537873 0.6301099
vn -0.6301099 0.4537873 -0.6301099
vn 0.6301099 0.4537873 -0.6301099
vn 0.8911101 0.4537873 0
vn 0 0.4537873 -0.8911101
vn 0.6301099 0.4537873 0.6301099
vn 0 0.4537873 0.8911101
vn 0.6849834 0.2481842 0.6849834
vn 0 0.2481842 0.9687129
vn 0.9687129 0.2481842 0
vn 0.6849834 0.2481842 -0.6849834
vn 0 0.2481842 -0.9687129
vn -0.6849834 0.2481842 0.6849834
vn -0.9687129 0.2481842 0
vn -0.6849834 0.2481842 -0.6849834
vn 0 0.5602286 0.828338
vn -0.5857235 0.5602286 0.5857235
vn 0.828338 0.5602286 0
vn 0.5857235 0.5602286 0.5857235
vn 0.5857235 0.5602286 -0.5857235
vn 0 0.2027397 0.9792326
vn -0.692422 0.2027397 0.692422
vn -0.9792326 0.2027397 0
vn 0.9792326 0.2027397 0
vn 0.692422 0.2027397 0.692422
vn 0 0.2027397 -0.9792326
vn 0.692422 0.2027397 -0.692422
vn -0.692422 0.2027397 -0.692422
vn -0.828338 0.5602286 0
vn -0.5857235 0.5602286 -0.5857235
vn 0 0.5602286 -0.828338

vt 0.71875 0.275
vt 0.71875 0.3016667
vt 0.71875 0.475
vt 0.71875 0.3683333
vt 0.71875 0.2907493
vt 0.71875 0.3301226
vt 0.71875 0.4132791
vt 0.71875 0.2883333
vt 0.71875 0.375
vt 0.71875 0.3216667
vt 0.21875 0.475
vt 0.21875 0.415
vt 0.21875 0.275

usemtl colormap

f 3/1/1 2/1/1 1/1/1
f 2/1/1 3/1/1 4/1/1
f 4/1/1 3/1/1 5/1/1
f 4/1/1 5/1/1 6/1/1
f 4/1/1 6/1/1 7/1/1
f 7/1/1 6/1/1 8/1/1
f 9/2/4 3/1/3 1/1/2
f 3/1/3 9/2/4 10/2/5
f 11/2/8 4/1/7 7/1/6
f 4/1/7 11/2/8 12/2/9
f 10/2/5 5/1/10 3/1/3
f 5/1/10 10/2/5 13/2/11
f 7/1/6 14/2/12 11/2/8
f 14/2/12 7/1/6 8/1/13
f 13/2/11 6/1/14 5/1/10
f 6/1/14 13/2/11 15/2/15
f 9/2/4 2/1/17 16/2/16
f 2/1/17 9/2/4 1/1/2
f 12/2/9 2/1/17 4/1/7
f 2/1/17 12/2/9 16/2/16
f 6/1/14 14/2/12 8/1/13
f 14/2/12 6/1/14 15/2/15
f 19/3/18 18/3/18 17/3/18
f 18/3/18 19/3/18 20/3/18
f 18/3/18 20/3/18 21/3/18
f 21/3/18 20/3/18 22/3/18
f 21/3/18 22/3/18 23/3/18
f 23/3/18 22/3/18 24/3/18
f 14/2/12 26/4/20 25/4/19
f 26/4/20 14/2/12 15/2/15
f 14/2/12 27/4/21 11/2/8
f 27/4/21 14/2/12 25/4/19
f 28/4/22 9/2/4 16/2/16
f 9/2/4 28/4/22 29/4/23
f 27/4/21 12/2/9 11/2/8
f 12/2/9 27/4/21 30/4/24
f 18/3/27 32/4/26 31/4/25
f 32/4/26 18/3/27 21/3/28
f 18/3/27 29/4/23 17/3/29
f 29/4/23 18/3/27 31/4/25
f 19/3/30 29/4/23 28/4/22
f 29/4/23 19/3/30 17/3/29
f 20/3/31 28/4/22 30/4/24
f 28/4/22 20/3/31 19/3/30
f 21/3/28 26/4/20 32/4/26
f 26/4/20 21/3/28 23/3/32
f 25/4/19 23/3/32 24/3/33
f 23/3/32 25/4/19 26/4/20
f 25/4/19 22/3/34 27/4/21
f 22/3/34 25/4/19 24/3/33
f 31/4/25 9/2/4 29/4/23
f 9/2/4 31/4/25 10/2/5
f 31/4/25 13/2/11 10/2/5
f 13/2/11 31/4/25 32/4/26
f 30/4/24 16/2/16 12/2/9
f 16/2/16 30/4/24 28/4/22
f 22/3/34 30/4/24 27/4/21
f 30/4/24 22/3/34 20/3/31
f 32/4/26 15/2/15 13/2/11
f 15/2/15 32/4/26 26/4/20
f 35/1/35 34/1/35 33/1/35
f 34/1/35 35/1/35 36/1/35
f 36/1/35 35/1/35 37/1/35
f 36/1/35 37/1/35 38/1/35
f 36/1/35 38/1/35 39/1/35
f 39/1/35 38/1/35 40/1/35
f 41/5/38 35/1/37 33/1/36
f 35/1/37 41/5/38 42/5/39
f 43/5/42 36/1/41 39/1/40
f 36/1/41 43/5/42 44/5/43
f 42/5/39 37/1/44 35/1/37
f 37/1/44 42/5/39 45/5/45
f 39/1/40 46/5/46 43/5/42
f 46/5/46 39/1/40 40/1/47
f 45/5/45 38/1/48 37/1/44
f 38/1/48 45/5/45 47/5/49
f 41/5/38 34/1/51 48/5/50
f 34/1/51 41/5/38 33/1/36
f 44/5/43 34/1/51 36/1/41
f 34/1/51 44/5/43 48/5/50
f 38/1/48 46/5/46 40/1/47
f 46/5/46 38/1/48 47/5/49
f 49/6/52 44/5/43 43/5/42
f 44/5/43 49/6/52 50/6/53
f 46/5/46 49/6/52 43/5/42
f 49/6/52 46/5/46 51/6/54
f 52/6/55 45/5/45 42/5/39
f 45/5/45 52/6/55 53/6/56
f 50/6/53 48/5/50 44/5/43
f 48/5/50 50/6/53 54/6/57
f 47/5/49 51/6/54 46/5/46
f 51/6/54 47/5/49 55/6/58
f 54/6/57 41/5/38 48/5/50
f 41/5/38 54/6/57 56/6/59
f 53/6/56 47/5/49 45/5/45
f 47/5/49 53/6/56 55/6/58
f 52/6/55 41/5/38 56/6/59
f 41/5/38 52/6/55 42/5/39
f 59/3/60 58/3/60 57/3/60
f 58/3/60 59/3/60 60/3/60
f 58/3/60 60/3/60 61/3/60
f 61/3/60 60/3/60 62/3/60
f 61/3/60 62/3/60 63/3/60
f 63/3/60 62/3/60 64/3/60
f 65/7/61 50/6/53 49/6/52
f 50/6/53 65/7/61 66/7/62
f 67/7/63 56/6/59 54/6/57
f 56/6/59 67/7/63 68/7/64
f 55/6/58 69/7/65 51/6/54
f 69/7/65 55/6/58 70/7/66
f 66/7/62 54/6/57 50/6/53
f 54/6/57 66/7/62 67/7/63
f 71/7/67 55/6/58 53/6/56
f 55/6/58 71/7/67 70/7/66
f 51/6/54 65/7/61 49/6/52
f 65/7/61 51/6/54 69/7/65
f 68/7/64 52/6/55 56/6/59
f 52/6/55 68/7/64 72/7/68
f 72/7/68 53/6/56 52/6/55
f 53/6/56 72/7/68 71/7/67
f 69/7/65 63/3/70 64/3/69
f 63/3/70 69/7/65 70/7/66
f 62/3/71 66/7/62 65/7/61
f 66/7/62 62/3/71 60/3/72
f 58/3/73 71/7/67 72/7/68
f 71/7/67 58/3/73 61/3/74
f 61/3/74 70/7/66 71/7/67
f 70/7/66 61/3/74 63/3/70
f 58/3/73 68/7/64 57/3/75
f 68/7/64 58/3/73 72/7/68
f 60/3/72 67/7/63 66/7/62
f 67/7/63 60/3/72 59/3/76
f 69/7/65 62/3/71 65/7/61
f 62/3/71 69/7/65 64/3/69
f 59/3/76 68/7/64 67/7/63
f 68/7/64 59/3/76 57/3/75
f 75/1/35 74/1/35 73/1/35
f 74/1/35 75/1/35 76/1/35
f 76/1/35 75/1/35 77/1/35
f 76/1/35 77/1/35 78/1/35
f 76/1/35 78/1/35 79/1/35
f 79/1/35 78/1/35 80/1/35
f 81/8/38 75/1/37 73/1/36
f 75/1/37 81/8/38 82/8/39
f 83/8/42 76/1/41 79/1/40
f 76/1/41 83/8/42 84/8/43
f 82/8/39 77/1/44 75/1/37
f 77/1/44 82/8/39 85/8/45
f 79/1/40 86/8/46 83/8/42
f 86/8/46 79/1/40 80/1/47
f 85/8/45 78/1/48 77/1/44
f 78/1/48 85/8/45 87/8/49
f 81/8/38 74/1/51 88/8/50
f 74/1/51 81/8/38 73/1/36
f 84/8/43 74/1/51 76/1/41
f 74/1/51 84/8/43 88/8/50
f 78/1/48 86/8/46 80/1/47
f 86/8/46 78/1/48 87/8/49
f 91/9/60 90/9/60 89/9/60
f 90/9/60 91/9/60 92/9/60
f 90/9/60 92/9/60 93/9/60
f 93/9/60 92/9/60 94/9/60
f 93/9/60 94/9/60 95/9/60
f 95/9/60 94/9/60 96/9/60
f 86/8/46 98/10/78 97/10/77
f 98/10/78 86/8/46 87/8/49
f 86/8/46 99/10/79 83/8/42
f 99/10/79 86/8/46 97/10/77
f 100/10/80 81/8/38 88/8/50
f 81/8/38 100/10/80 101/10/81
f 99/10/79 84/8/43 83/8/42
f 84/8/43 99/10/79 102/10/82
f 90/9/85 104/10/84 103/10/83
f 104/10/84 90/9/85 93/9/86
f 90/9/85 101/10/81 89/9/87
f 101/10/81 90/9/85 103/10/83
f 91/9/88 101/10/81 100/10/80
f 101/10/81 91/9/88 89/9/87
f 92/9/89 100/10/80 102/10/82
f 100/10/80 92/9/89 91/9/88
f 93/9/86 98/10/78 104/10/84
f 98/10/78 93/9/86 95/9/90
f 97/10/77 95/9/90 96/9/91
f 95/9/90 97/10/77 98/10/78
f 97/10/77 94/9/92 99/10/79
f 94/9/92 97/10/77 96/9/91
f 103/10/83 81/8/38 101/10/81
f 81/8/38 103/10/83 82/8/39
f 103/10/83 85/8/45 82/8/39
f 85/8/45 103/10/83 104/10/84
f 102/10/82 88/8/50 84/8/43
f 88/8/50 102/10/82 100/10/80
f 94/9/92 102/10/82 99/10/79
f 102/10/82 94/9/92 92/9/89
f 104/10/84 87/8/49 85/8/45
f 87/8/49 104/10/84 98/10/78
f 107/12/93 106/11/94 105/11/93
f 106/11/94 107/12/93 108/12/94
f 111/11/35 110/11/35 109/11/35
f 110/11/35 111/11/35 105/11/35
f 110/11/35 105/11/35 112/11/35
f 112/11/35 105/11/35 106/11/35
f 112/11/35 106/11/35 113/11/35
f 113/11/35 106/11/35 114/11/35
f 115/12/95 111/11/96 109/11/95
f 111/11/96 115/12/95 116/12/96
f 116/12/96 105/11/93 111/11/96
f 105/11/93 116/12/96 107/12/93
f 117/12/97 109/11/95 110/11/97
f 109/11/95 117/12/97 115/12/95
f 118/13/98 108/12/99 107/12/98
f 108/12/99 118/13/98 119/13/99
f 121/12/100 119/13/99 120/13/100
f 119/13/99 121/12/100 108/12/99
f 123/13/102 115/12/101 122/13/101
f 115/12/101 123/13/102 116/12/102
f 125/13/103 117/12/104 124/12/103
f 117/12/104 125/13/103 126/13/104
f 121/12/100 128/13/105 127/12/105
f 128/13/105 121/12/100 120/13/100
f 123/13/102 107/12/98 116/12/102
f 107/12/98 123/13/102 118/13/98
f 126/13/104 115/12/101 117/12/104
f 115/12/101 126/13/104 122/13/101
f 128/13/105 124/12/103 127/12/105
f 124/12/103 128/13/105 125/13/103
f 106/11/94 121/12/106 114/11/106
f 121/12/106 106/11/94 108/12/94
f 127/12/107 112/11/108 113/11/107
f 112/11/108 127/12/107 124/12/108
f 114/11/106 127/12/107 113/11/107
f 127/12/107 114/11/106 121/12/106
f 124/12/108 110/11/97 112/11/108
f 110/11/97 124/12/108 117/12/97

g tree




usemtl colormap

f 3/1/1 2/1/1 1/1/1
f 2/1/1 3/1/1 4/1/1
f 4/1/1 3/1/1 5/1/1
f 4/1/1 5/1/1 6/1/1
f 4/1/1 6/1/1 7/1/1
f 7/1/1 6/1/1 8/1/1
f 9/2/4 3/1/3 1/1/2
f 3/1/3 9/2/4 10/2/5
f 11/2/8 4/1/7 7/1/6
f 4/1/7 11/2/8 12/2/9
f 10/2/5 5/1/10 3/1/3
f 5/1/10 10/2/5 13/2/11
f 7/1/6 14/2/12 11/2/8
f 14/2/12 7/1/6 8/1/13
f 13/2/11 6/1/14 5/1/10
f 6/1/14 13/2/11 15/2/15
f 9/2/4 2/1/17 16/2/16
f 2/1/17 9/2/4 1/1/2
f 12/2/9 2/1/17 4/1/7
f 2/1/17 12/2/9 16/2/16
f 6/1/14 14/2/12 8/1/13
f 14/2/12 6/1/14 15/2/15
f 19/3/18 18/3/18 17/3/18
f 18/3/18 19/3/18 20/3/18
f 18/3/18 20/3/18 21/3/18
f 21/3/18 20/3/18 22/3/18
f 21/3/18 22/3/18 23/3/18
f 23/3/18 22/3/18 24/3/18
f 14/2/12 26/4/20 25/4/19
f 26/4/20 14/2/12 15/2/15
f 14/2/12 27/4/21 11/2/8
f 27/4/21 14/2/12 25/4/19
f 28/4/22 9/2/4 16/2/16
f 9/2/4 28/4/22 29/4/23
f 27/4/21 12/2/9 11/2/8
f 12/2/9 27/4/21 30/4/24
f 18/3/27 32/4/26 31/4/25
f 32/4/26 18/3/27 21/3/28
f 18/3/27 29/4/23 17/3/29
f 29/4/23 18/3/27 31/4/25
f 19/3/30 29/4/23 28/4/22
f 29/4/23 19/3/30 17/3/29
f 20/3/31 28/4/22 30/4/24
f 28/4/22 20/3/31 19/3/30
f 21/3/28 26/4/20 32/4/26
f 26/4/20 21/3/28 23/3/32
f 25/4/19 23/3/32 24/3/33
f 23/3/32 25/4/19 26/4/20
f 25/4/19 22/3/34 27/4/21
f 22/3/34 25/4/19 24/3/33
f 31/4/25 9/2/4 29/4/23
f 9/2/4 31/4/25 10/2/5
f 31/4/25 13/2/11 10/2/5
f 13/2/11 31/4/25 32/4/26
f 30/4/24 16/2/16 12/2/9
f 16/2/16 30/4/24 28/4/22
f 22/3/34 30/4/24 27/4/21
f 30/4/24 22/3/34 20/3/31
f 32/4/26 15/2/15 13/2/11
f 15/2/15 32/4/26 26/4/20
f 35/1/35 34/1/35 33/1/35
f 34/1/35 35/1/35 36/1/35
f 36/1/35 35/1/35 37/1/35
f 36/1/35 37/1/35 38/1/35
f 36/1/35 38/1/35 39/1/35
f 39/1/35 38/1/35 40/1/35
f 41/5/38 35/1/37 33/1/36
f 35/1/37 41/5/38 42/5/39
f 43/5/42 36/1/41 39/1/40
f 36/1/41 43/5/42 44/5/43
f 42/5/39 37/1/44 35/1/37
f 37/1/44 42/5/39 45/5/45
f 39/1/40 46/5/46 43/5/42
f 46/5/46 39/1/40 40/1/47
f 45/5/45 38/1/48 37/1/44
f 38/1/48 45/5/45 47/5/49
f 41/5/38 34/1/51 48/5/50
f 34/1/51 41/5/38 33/1/36
f 44/5/43 34/1/51 36/1/41
f 34/1/51 44/5/43 48/5/50
f 38/1/48 46/5/46 40/1/47
f 46/5/46 38/1/48 47/5/49
f 49/6/52 44/5/43 43/5/42
f 44/5/43 49/6/52 50/6/53
f 46/5/46 49/6/52 43/5/42
f 49/6/52 46/5/46 51/6/54
f 52/6/55 45/5/45 42/5/39
f 45/5/45 52/6/55 53/6/56
f 50/6/53 48/5/50 44/5/43
f 48/5/50 50/6/53 54/6/57
f 47/5/49 51/6/54 46/5/46
f 51/6/54 47/5/49 55/6/58
f 54/6/57 41/5/38 48/5/50
f 41/5/38 54/6/57 56/6/59
f 53/6/56 47/5/49 45/5/45
f 47/5/49 53/6/56 55/6/58
f 52/6/55 41/5/38 56/6/59
f 41/5/38 52/6/55 42/5/39
f 59/3/60 58/3/60 57/3/60
f 58/3/60 59/3/60 60/3/60
f 58/3/60 60/3/60 61/3/60
f 61/3/60 60/3/60 62/3/60
f 61/3/60 62/3/60 63/3/60
f 63/3/60 62/3/60 64/3/60
f 65/7/61 50/6/53 49/6/52
f 50/6/53 65/7/61 66/7/62
f 67/7/63 56/6/59 54/6/57
f 56/6/59 67/7/63 68/7/64
f 55/6/58 69/7/65 51/6/54
f 69/7/65 55/6/58 70/7/66
f 66/7/62 54/6/57 50/6/53
f 54/6/57 66/7/62 67/7/63
f 71/7/67 55/6/58 53/6/56
f 55/6/58 71/7/67 70/7/66
f 51/6/54 65/7/61 49/6/52
f 65/7/61 51/6/54 69/7/65
f 68/7/64 52/6/55 56/6/59
f 52/6/55 68/7/64 72/7/68
f 72/7/68 53/6/56 52/6/55
f 53/6/56 72/7/68 71/7/67
f 69/7/65 63/3/70 64/3/69
f 63/3/70 69/7/65 70/7/66
f 62/3/71 66/7/62 65/7/61
f 66/7/62 62/3/71 60/3/72
f 58/3/73 71/7/67 72/7/68
f 71/7/67 58/3/73 61/3/74
f 61/3/74 70/7/66 71/7/67
f 70/7/66 61/3/74 63/3/70
f 58/3/73 68/7/64 57/3/75
f 68/7/64 58/3/73 72/7/68
f 60/3/72 67/7/63 66/7/62
f 67/7/63 60/3/72 59/3/76
f 69/7/65 62/3/71 65/7/61
f 62/3/71 69/7/65 64/3/69
f 59/3/76 68/7/64 67/7/63
f 68/7/64 59/3/76 57/3/75
f 75/1/35 74/1/35 73/1/35
f 74/1/35 75/1/35 76/1/35
f 76/1/35 75/1/35 77/1/35
f 76/1/35 77/1/35 78/1/35
f 76/1/35 78/1/35 79/1/35
f 79/1/35 78/1/35 80/1/35
f 81/8/38 75/1/37 73/1/36
f 75/1/37 81/8/38 82/8/39
f 83/8/42 76/1/41 79/1/40
f 76/1/41 83/8/42 84/8/43
f 82/8/39 77/1/44 75/1/37
f 77/1/44 82/8/39 85/8/45
f 79/1/40 86/8/46 83/8/42
f 86/8/46 79/1/40 80/1/47
f 85/8/45 78/1/48 77/1/44
f 78/1/48 85/8/45 87/8/49
f 81/8/38 74/1/51 88/8/50
f 74/1/51 81/8/38 73/1/36
f 84/8/43 74/1/51 76/1/41
f 74/1/51 84/8/43 88/8/50
f 78/1/48 86/8/46 80/1/47
f 86/8/46 78/1/48 87/8/49
f 91/9/60 90/9/60 89/9/60
f 90/9/60 91/9/60 92/9/60
f 90/9/60 92/9/60 93/9/60
f 93/9/60 92/9/60 94/9/60
f 93/9/60 94/9/60 95/9/60
f 95/9/60 94/9/60 96/9/60
f 86/8/46 98/10/78 97/10/77
f 98/10/78 86/8/46 87/8/49
f 86/8/46 99/10/79 83/8/42
f 99/10/79 86/8/46 97/10/77
f 100/10/80 81/8/38 88/8/50
f 81/8/38 100/10/80 101/10/81
f 99/10/79 84/8/43 83/8/42
f 84/8/43 99/10/79 102/10/82
f 90/9/85 104/10/84 103/10/83
f 104/10/84 90/9/85 93/9/86
f 90/9/85 101/10/81 89/9/87
f 101/10/81 90/9/85 103/10/83
f 91/9/88 101/10/81 100/10/80
f 101/10/81 91/9/88 89/9/87
f 92/9/89 100/10/80 102/10/82
f 100/10/80 92/9/89 91/9/88
f 93/9/86 98/10/78 104/10/84
f 98/10/78 93/9/86 95/9/90
f 97/10/77 95/9/90 96/9/91
f 95/9/90 97/10/77 98/10/78
f 97/10/77 94/9/92 99/10/79
f 94/9/92 97/10/77 96/9/91
f 103/10/83 81/8/38 101/10/81
f 81/8/38 103/10/83 82/8/39
f 103/10/83 85/8/45 82/8/39
f 85/8/45 103/10/83 104/10/84
f 102/10/82 88/8/50 84/8/43
f 88/8/50 102/10/82 100/10/80
f 94/9/92 102/10/82 99/10/79
f 102/10/82 94/9/92 92/9/89
f 104/10/84 87/8/49 85/8/45
f 87/8/49 104/10/84 98/10/78
f 107/12/93 106/11/94 105/11/93
f 106/11/94 107/12/93 108/12/94
f 111/11/35 110/11/35 109/11/35
f 110/11/35 111/11/35 105/11/35
f 110/11/35 105/11/35 112/11/35
f 112/11/35 105/11/35 106/11/35
f 112/11/35 106/11/35 113/11/35
f 113/11/35 106/11/35 114/11/35
f 115/12/95 111/11/96 109/11/95
f 111/11/96 115/12/95 116/12/96
f 116/12/96 105/11/93 111/11/96
f 105/11/93 116/12/96 107/12/93
f 117/12/97 109/11/95 110/11/97
f 109/11/95 117/12/97 115/12/95
f 118/13/98 108/12/99 107/12/98
f 108/12/99 118/13/98 119/13/99
f 121/12/100 119/13/99 120/13/100
f 119/13/99 121/12/100 108/12/99
f 123/13/102 115/12/101 122/13/101
f 115/12/101 123/13/102 116/12/102
f 125/13/103 117/12/104 124/12/103
f 117/12/104 125/13/103 126/13/104
f 121/12/100 128/13/105 127/12/105
f 128/13/105 121/12/100 120/13/100
f 123/13/102 107/12/98 116/12/102
f 107/12/98 123/13/102 118/13/98
f 126/13/104 115/12/101 117/12/104
f 115/12/101 126/13/104 122/13/101
f 128/13/105 124/12/103 127/12/105
f 124/12/103 128/13/105 125/13/103
f 106/11/94 121/12/106 114/11/106
f 121/12/106 106/11/94 108/12/94
f 127/12/107 112/11/108 113/11/107
f 112/11/108 127/12/107 124/12/108
f 114/11/106 127/12/107 113/11/107
f 127/12/107 114/11/106 121/12/106
f 124/12/108 110/11/97 112/11/108
f 110/11/97 124/12/108 117/12/97

